%TF.GenerationSoftware,KiCad,Pcbnew,9.0.7*%
%TF.CreationDate,2026-02-14T16:58:03-06:00*%
%TF.ProjectId,Deswizzler-QSB,44657377-697a-47a6-9c65-722d5153422e,A1*%
%TF.SameCoordinates,Original*%
%TF.FileFunction,Copper,L1,Top*%
%TF.FilePolarity,Positive*%
%FSLAX46Y46*%
G04 Gerber Fmt 4.6, Leading zero omitted, Abs format (unit mm)*
G04 Created by KiCad (PCBNEW 9.0.7) date 2026-02-14 16:58:03*
%MOMM*%
%LPD*%
G01*
G04 APERTURE LIST*
G04 Aperture macros list*
%AMRoundRect*
0 Rectangle with rounded corners*
0 $1 Rounding radius*
0 $2 $3 $4 $5 $6 $7 $8 $9 X,Y pos of 4 corners*
0 Add a 4 corners polygon primitive as box body*
4,1,4,$2,$3,$4,$5,$6,$7,$8,$9,$2,$3,0*
0 Add four circle primitives for the rounded corners*
1,1,$1+$1,$2,$3*
1,1,$1+$1,$4,$5*
1,1,$1+$1,$6,$7*
1,1,$1+$1,$8,$9*
0 Add four rect primitives between the rounded corners*
20,1,$1+$1,$2,$3,$4,$5,0*
20,1,$1+$1,$4,$5,$6,$7,0*
20,1,$1+$1,$6,$7,$8,$9,0*
20,1,$1+$1,$8,$9,$2,$3,0*%
G04 Aperture macros list end*
%ADD10C,0.100000*%
%TA.AperFunction,NonConductor*%
%ADD11C,0.100000*%
%TD*%
%TA.AperFunction,SMDPad,CuDef*%
%ADD12RoundRect,0.155000X-0.212500X-0.155000X0.212500X-0.155000X0.212500X0.155000X-0.212500X0.155000X0*%
%TD*%
%TA.AperFunction,CastellatedPad*%
%ADD13R,0.700000X0.700000*%
%TD*%
%TA.AperFunction,CastellatedPad*%
%ADD14R,1.750000X1.750000*%
%TD*%
%TA.AperFunction,ViaPad*%
%ADD15C,0.400000*%
%TD*%
%TA.AperFunction,Conductor*%
%ADD16C,0.100000*%
%TD*%
G04 APERTURE END LIST*
D10*
D11*
X76166667Y-53039204D02*
X76000000Y-53039204D01*
X76000000Y-53301109D02*
X76000000Y-52801109D01*
X76000000Y-52801109D02*
X76238095Y-52801109D01*
X76404762Y-53158252D02*
X76642857Y-53158252D01*
X76357143Y-53301109D02*
X76523809Y-52801109D01*
X76523809Y-52801109D02*
X76690476Y-53301109D01*
X77023809Y-53039204D02*
X77095237Y-53063014D01*
X77095237Y-53063014D02*
X77119047Y-53086823D01*
X77119047Y-53086823D02*
X77142856Y-53134442D01*
X77142856Y-53134442D02*
X77142856Y-53205871D01*
X77142856Y-53205871D02*
X77119047Y-53253490D01*
X77119047Y-53253490D02*
X77095237Y-53277300D01*
X77095237Y-53277300D02*
X77047618Y-53301109D01*
X77047618Y-53301109D02*
X76857142Y-53301109D01*
X76857142Y-53301109D02*
X76857142Y-52801109D01*
X76857142Y-52801109D02*
X77023809Y-52801109D01*
X77023809Y-52801109D02*
X77071428Y-52824919D01*
X77071428Y-52824919D02*
X77095237Y-52848728D01*
X77095237Y-52848728D02*
X77119047Y-52896347D01*
X77119047Y-52896347D02*
X77119047Y-52943966D01*
X77119047Y-52943966D02*
X77095237Y-52991585D01*
X77095237Y-52991585D02*
X77071428Y-53015395D01*
X77071428Y-53015395D02*
X77023809Y-53039204D01*
X77023809Y-53039204D02*
X76857142Y-53039204D01*
X77904761Y-53039204D02*
X77976189Y-53063014D01*
X77976189Y-53063014D02*
X77999999Y-53086823D01*
X77999999Y-53086823D02*
X78023808Y-53134442D01*
X78023808Y-53134442D02*
X78023808Y-53205871D01*
X78023808Y-53205871D02*
X77999999Y-53253490D01*
X77999999Y-53253490D02*
X77976189Y-53277300D01*
X77976189Y-53277300D02*
X77928570Y-53301109D01*
X77928570Y-53301109D02*
X77738094Y-53301109D01*
X77738094Y-53301109D02*
X77738094Y-52801109D01*
X77738094Y-52801109D02*
X77904761Y-52801109D01*
X77904761Y-52801109D02*
X77952380Y-52824919D01*
X77952380Y-52824919D02*
X77976189Y-52848728D01*
X77976189Y-52848728D02*
X77999999Y-52896347D01*
X77999999Y-52896347D02*
X77999999Y-52943966D01*
X77999999Y-52943966D02*
X77976189Y-52991585D01*
X77976189Y-52991585D02*
X77952380Y-53015395D01*
X77952380Y-53015395D02*
X77904761Y-53039204D01*
X77904761Y-53039204D02*
X77738094Y-53039204D01*
D12*
%TO.P,C3,1*%
%TO.N,/TX1_DP*%
X79432500Y-48206800D03*
%TO.P,C3,2*%
%TO.N,/RX0_DP_C*%
X80567500Y-48206800D03*
%TD*%
%TO.P,C4,1*%
%TO.N,/TX1_DN*%
X79432500Y-49324400D03*
%TO.P,C4,2*%
%TO.N,/RX0_DN_C*%
X80567500Y-49324400D03*
%TD*%
D13*
%TO.P,J2,1,1*%
%TO.N,/TX0_DN*%
X71834000Y-51381800D03*
%TD*%
%TO.P,J13,1,1*%
%TO.N,/RX0_DP_C*%
X134191000Y-70000000D03*
%TD*%
D12*
%TO.P,C1,1*%
%TO.N,/TX0_DP*%
X79432500Y-51381800D03*
%TO.P,C1,2*%
%TO.N,/RX1_DP_C*%
X80567500Y-51381800D03*
%TD*%
D13*
%TO.P,J4,1,1*%
%TO.N,/TX1_DN*%
X71834000Y-48206800D03*
%TD*%
%TO.P,J15,1,1*%
%TO.N,/RX1_DP_C*%
X130000000Y-70000000D03*
%TD*%
%TO.P,J12,1,1*%
%TO.N,/TX1_DN_C*%
X135207000Y-69085600D03*
%TD*%
%TO.P,J11,1,1*%
%TO.N,/TX1_DP_C*%
X134191000Y-69085600D03*
%TD*%
%TO.P,J6,1,1*%
%TO.N,/RX0_DN*%
X72748400Y-48206800D03*
%TD*%
%TO.P,J5,1,1*%
%TO.N,/RX0_DP*%
X72748400Y-49324400D03*
%TD*%
%TO.P,J1,1,1*%
%TO.N,/TX0_DP*%
X71834000Y-52499400D03*
%TD*%
%TO.P,J7,1,1*%
%TO.N,/RX1_DP*%
X72748400Y-52499400D03*
%TD*%
%TO.P,J3,1,1*%
%TO.N,/TX1_DP*%
X71834000Y-49324400D03*
%TD*%
D12*
%TO.P,C2,1*%
%TO.N,/TX0_DN*%
X79432500Y-52499400D03*
%TO.P,C2,2*%
%TO.N,/RX1_DN_C*%
X80567500Y-52499400D03*
%TD*%
D13*
%TO.P,J16,1,1*%
%TO.N,/RX1_DN_C*%
X131016000Y-70000000D03*
%TD*%
D12*
%TO.P,C5,1*%
%TO.N,/RX1_DP*%
X76432500Y-50900000D03*
%TO.P,C5,2*%
%TO.N,/TX0_DP_C*%
X77567500Y-50900000D03*
%TD*%
D13*
%TO.P,J14,1,1*%
%TO.N,/RX0_DN_C*%
X135207000Y-70000000D03*
%TD*%
D12*
%TO.P,C8,1*%
%TO.N,/RX0_DN*%
X76432500Y-46620000D03*
%TO.P,C8,2*%
%TO.N,/TX1_DN_C*%
X77567500Y-46620000D03*
%TD*%
D13*
%TO.P,J9,1,1*%
%TO.N,/TX0_DP_C*%
X130000000Y-69085600D03*
%TD*%
D12*
%TO.P,C6,1*%
%TO.N,/RX1_DN*%
X76432500Y-49800000D03*
%TO.P,C6,2*%
%TO.N,/TX0_DN_C*%
X77567500Y-49800000D03*
%TD*%
D13*
%TO.P,J8,1,1*%
%TO.N,/RX1_DN*%
X72748400Y-51381800D03*
%TD*%
%TO.P,J10,1,1*%
%TO.N,/TX0_DN_C*%
X131016000Y-69085600D03*
%TD*%
D14*
%TO.P,J17,1,1*%
%TO.N,GND*%
X85931000Y-61668800D03*
%TD*%
D12*
%TO.P,C7,1*%
%TO.N,/RX0_DP*%
X76432500Y-47725000D03*
%TO.P,C7,2*%
%TO.N,/TX1_DP_C*%
X77567500Y-47725000D03*
%TD*%
D15*
%TO.N,GND*%
X75500000Y-51150000D03*
X75500000Y-46400000D03*
X78500000Y-51150000D03*
X133600000Y-67300000D03*
X75500000Y-49550000D03*
X119900000Y-56200000D03*
X129800000Y-67300000D03*
X119900000Y-53100000D03*
X81500000Y-52750000D03*
X89400000Y-54600000D03*
X78500000Y-52750000D03*
X78500000Y-46400000D03*
X88250000Y-58625000D03*
X135300000Y-67300000D03*
X78500000Y-49550000D03*
X132350000Y-70650000D03*
X119900000Y-59025000D03*
X128175000Y-67300000D03*
X89400000Y-56200000D03*
X81500000Y-49550000D03*
X119900000Y-54600000D03*
X89400000Y-57700000D03*
X89400000Y-53100000D03*
X81500000Y-47950000D03*
X131425000Y-67300000D03*
X75500000Y-52750000D03*
X81500000Y-51150000D03*
X78500000Y-47950000D03*
X71025000Y-50550000D03*
X75500000Y-47950000D03*
X119900000Y-57700000D03*
X81500000Y-46400000D03*
%TD*%
D16*
%TO.N,/TX0_DP*%
X76179849Y-51600000D02*
X76219849Y-51600000D01*
X75579849Y-51850000D02*
X75619849Y-51850000D01*
X74979849Y-51600000D02*
X75019849Y-51600000D01*
X75379849Y-51600000D02*
X75419849Y-51600000D01*
X78964300Y-51850000D02*
X79432500Y-51381800D01*
X71500000Y-53100000D02*
X71700000Y-53300000D01*
X75899849Y-51680000D02*
X75899849Y-51770000D01*
X76379849Y-51850000D02*
X76419849Y-51850000D01*
X75299849Y-51770000D02*
X75299849Y-51680000D01*
X71700000Y-53300000D02*
X73265744Y-53300000D01*
X75099849Y-51680000D02*
X75099849Y-51770000D01*
X75779849Y-51600000D02*
X75819849Y-51600000D01*
X75699849Y-51770000D02*
X75699849Y-51680000D01*
X75179849Y-51850000D02*
X75219849Y-51850000D01*
X74715744Y-51850000D02*
X74819849Y-51850000D01*
X73265744Y-53300000D02*
X74715744Y-51850000D01*
X71500000Y-52833400D02*
X71500000Y-53100000D01*
X76099849Y-51770000D02*
X76099849Y-51680000D01*
X71834000Y-52499400D02*
X71500000Y-52833400D01*
X76673941Y-51850000D02*
X78964300Y-51850000D01*
X75499849Y-51680000D02*
X75499849Y-51770000D01*
X75979849Y-51850000D02*
X76019849Y-51850000D01*
X76419849Y-51850000D02*
X76673941Y-51850000D01*
X76299849Y-51680000D02*
X76299849Y-51770000D01*
X74899849Y-51770000D02*
X74899849Y-51680000D01*
X75419849Y-51600000D02*
G75*
G02*
X75499900Y-51680000I51J-80000D01*
G01*
X75699849Y-51680000D02*
G75*
G02*
X75779849Y-51600049I79951J0D01*
G01*
X75819849Y-51600000D02*
G75*
G02*
X75899900Y-51680000I51J-80000D01*
G01*
X75899849Y-51770000D02*
G75*
G03*
X75979849Y-51849951I79951J0D01*
G01*
X75019849Y-51600000D02*
G75*
G02*
X75099900Y-51680000I51J-80000D01*
G01*
X76219849Y-51600000D02*
G75*
G02*
X76299900Y-51680000I51J-80000D01*
G01*
X74819849Y-51850000D02*
G75*
G03*
X74899900Y-51770000I51J80000D01*
G01*
X75499849Y-51770000D02*
G75*
G03*
X75579849Y-51849951I79951J0D01*
G01*
X75299849Y-51680000D02*
G75*
G02*
X75379849Y-51600049I79951J0D01*
G01*
X74899849Y-51680000D02*
G75*
G02*
X74979849Y-51600049I79951J0D01*
G01*
X75099849Y-51770000D02*
G75*
G03*
X75179849Y-51849951I79951J0D01*
G01*
X76299849Y-51770000D02*
G75*
G03*
X76379849Y-51849951I79951J0D01*
G01*
X76019849Y-51850000D02*
G75*
G03*
X76099900Y-51770000I51J80000D01*
G01*
X76099849Y-51680000D02*
G75*
G02*
X76179849Y-51600049I79951J0D01*
G01*
X75219849Y-51850000D02*
G75*
G03*
X75299900Y-51770000I51J80000D01*
G01*
X75619849Y-51850000D02*
G75*
G03*
X75699900Y-51770000I51J80000D01*
G01*
%TO.N,/RX1_DP_C*%
X90580295Y-58400000D02*
X90620295Y-58400000D01*
X90100295Y-58230000D02*
X90100295Y-58320000D01*
X89980295Y-58150000D02*
X90020295Y-58150000D01*
X90180295Y-58400000D02*
X90220295Y-58400000D01*
X120201600Y-58400000D02*
X129200000Y-67398400D01*
X90900295Y-58230000D02*
X90900295Y-58320000D01*
X82450000Y-51850000D02*
X89000000Y-58400000D01*
X129650000Y-70350000D02*
X130000000Y-70000000D01*
X89900295Y-58320000D02*
X89900295Y-58230000D01*
X91020295Y-58400000D02*
X91133432Y-58400000D01*
X129200000Y-70200000D02*
X129350000Y-70350000D01*
X81035700Y-51850000D02*
X82450000Y-51850000D01*
X129350000Y-70350000D02*
X129650000Y-70350000D01*
X90300295Y-58320000D02*
X90300295Y-58230000D01*
X90700295Y-58320000D02*
X90700295Y-58230000D01*
X80567500Y-51381800D02*
X81035700Y-51850000D01*
X90380295Y-58150000D02*
X90420295Y-58150000D01*
X90500295Y-58230000D02*
X90500295Y-58320000D01*
X89000000Y-58400000D02*
X89820295Y-58400000D01*
X90780295Y-58150000D02*
X90820295Y-58150000D01*
X91133432Y-58400000D02*
X120201600Y-58400000D01*
X90980295Y-58400000D02*
X91020295Y-58400000D01*
X129200000Y-67398400D02*
X129200000Y-70200000D01*
X90020295Y-58150000D02*
G75*
G02*
X90100300Y-58230000I5J-80000D01*
G01*
X90820295Y-58150000D02*
G75*
G02*
X90900300Y-58230000I5J-80000D01*
G01*
X90700295Y-58230000D02*
G75*
G02*
X90780295Y-58149995I80005J0D01*
G01*
X90900295Y-58320000D02*
G75*
G03*
X90980295Y-58400005I80005J0D01*
G01*
X89900295Y-58230000D02*
G75*
G02*
X89980295Y-58149995I80005J0D01*
G01*
X90220295Y-58400000D02*
G75*
G03*
X90300300Y-58320000I5J80000D01*
G01*
X89820295Y-58400000D02*
G75*
G03*
X89900300Y-58320000I5J80000D01*
G01*
X90300295Y-58230000D02*
G75*
G02*
X90380295Y-58149995I80005J0D01*
G01*
X90620295Y-58400000D02*
G75*
G03*
X90700300Y-58320000I5J80000D01*
G01*
X90500295Y-58320000D02*
G75*
G03*
X90580295Y-58400005I80005J0D01*
G01*
X90100295Y-58320000D02*
G75*
G03*
X90180295Y-58400005I80005J0D01*
G01*
X90420295Y-58150000D02*
G75*
G02*
X90500300Y-58230000I5J-80000D01*
G01*
%TO.N,/TX0_DN*%
X71834000Y-51381800D02*
X71300000Y-51915800D01*
X78983100Y-52050000D02*
X79432500Y-52499400D01*
X71300000Y-51915800D02*
X71300000Y-53184256D01*
X73349000Y-53501000D02*
X74800000Y-52050000D01*
X71616744Y-53501000D02*
X73349000Y-53501000D01*
X74800000Y-52050000D02*
X78983100Y-52050000D01*
X71300000Y-53184256D02*
X71616744Y-53501000D01*
%TO.N,/RX1_DN_C*%
X82350000Y-52050000D02*
X81016900Y-52050000D01*
X88900000Y-58600000D02*
X82350000Y-52050000D01*
X130466000Y-70550000D02*
X129265744Y-70550000D01*
X129000000Y-67498400D02*
X120101600Y-58600000D01*
X129000000Y-70284256D02*
X129000000Y-67498400D01*
X120101600Y-58600000D02*
X88900000Y-58600000D01*
X131016000Y-70000000D02*
X130466000Y-70550000D01*
X81016900Y-52050000D02*
X80567500Y-52499400D01*
X129265744Y-70550000D02*
X129000000Y-70284256D01*
%TO.N,/TX1_DP*%
X75899567Y-48490000D02*
X75899567Y-48580000D01*
X76419567Y-48660000D02*
X76506662Y-48660000D01*
X74716276Y-48660000D02*
X74819567Y-48660000D01*
X76506662Y-48660000D02*
X78979300Y-48660000D01*
X75499567Y-48490000D02*
X75499567Y-48580000D01*
X75699567Y-48580000D02*
X75699567Y-48490000D01*
X75779567Y-48410000D02*
X75819567Y-48410000D01*
X71500000Y-49600000D02*
X71500000Y-49900000D01*
X74979567Y-48410000D02*
X75019567Y-48410000D01*
X71775600Y-49324400D02*
X71500000Y-49600000D01*
X75179567Y-48660000D02*
X75219567Y-48660000D01*
X76299567Y-48490000D02*
X76299567Y-48580000D01*
X71700000Y-50100000D02*
X73276276Y-50100000D01*
X76379567Y-48660000D02*
X76419567Y-48660000D01*
X71500000Y-49900000D02*
X71700000Y-50100000D01*
X74899567Y-48580000D02*
X74899567Y-48490000D01*
X75979567Y-48660000D02*
X76019567Y-48660000D01*
X75099567Y-48490000D02*
X75099567Y-48580000D01*
X76099567Y-48580000D02*
X76099567Y-48490000D01*
X78979300Y-48660000D02*
X79432500Y-48206800D01*
X76179567Y-48410000D02*
X76219567Y-48410000D01*
X75579567Y-48660000D02*
X75619567Y-48660000D01*
X75379567Y-48410000D02*
X75419567Y-48410000D01*
X73276276Y-50100000D02*
X74716276Y-48660000D01*
X75299567Y-48580000D02*
X75299567Y-48490000D01*
X71834000Y-49324400D02*
X71775600Y-49324400D01*
X74899567Y-48490000D02*
G75*
G02*
X74979567Y-48409967I80033J0D01*
G01*
X74819567Y-48660000D02*
G75*
G03*
X74899600Y-48580000I33J80000D01*
G01*
X75499567Y-48580000D02*
G75*
G03*
X75579567Y-48660033I80033J0D01*
G01*
X76019567Y-48660000D02*
G75*
G03*
X76099600Y-48580000I33J80000D01*
G01*
X75299567Y-48490000D02*
G75*
G02*
X75379567Y-48409967I80033J0D01*
G01*
X75219567Y-48660000D02*
G75*
G03*
X75299600Y-48580000I33J80000D01*
G01*
X75619567Y-48660000D02*
G75*
G03*
X75699600Y-48580000I33J80000D01*
G01*
X75419567Y-48410000D02*
G75*
G02*
X75499600Y-48490000I33J-80000D01*
G01*
X75699567Y-48490000D02*
G75*
G02*
X75779567Y-48409967I80033J0D01*
G01*
X76219567Y-48410000D02*
G75*
G02*
X76299600Y-48490000I33J-80000D01*
G01*
X75099567Y-48580000D02*
G75*
G03*
X75179567Y-48660033I80033J0D01*
G01*
X76099567Y-48490000D02*
G75*
G02*
X76179567Y-48409967I80033J0D01*
G01*
X75899567Y-48580000D02*
G75*
G03*
X75979567Y-48660033I80033J0D01*
G01*
X75019567Y-48410000D02*
G75*
G02*
X75099600Y-48490000I33J-80000D01*
G01*
X76299567Y-48580000D02*
G75*
G03*
X76379567Y-48660033I80033J0D01*
G01*
X75819567Y-48410000D02*
G75*
G02*
X75899600Y-48490000I33J-80000D01*
G01*
%TO.N,/RX0_DP_C*%
X90379525Y-55050000D02*
X90419525Y-55050000D01*
X133400000Y-70200000D02*
X133550000Y-70350000D01*
X91098406Y-55300000D02*
X120810000Y-55300000D01*
X81020700Y-48660000D02*
X82447498Y-48660000D01*
X120810000Y-55300000D02*
X133400000Y-67890000D01*
X134191000Y-70009000D02*
X134191000Y-70000000D01*
X90579525Y-55300000D02*
X90619525Y-55300000D01*
X89979525Y-55050000D02*
X90019525Y-55050000D01*
X89899525Y-55220000D02*
X89899525Y-55130000D01*
X133850000Y-70350000D02*
X134191000Y-70009000D01*
X89087498Y-55300000D02*
X89819525Y-55300000D01*
X90099525Y-55130000D02*
X90099525Y-55220000D01*
X133400000Y-67890000D02*
X133400000Y-70200000D01*
X80567500Y-48206800D02*
X81020700Y-48660000D01*
X90179525Y-55300000D02*
X90219525Y-55300000D01*
X90979525Y-55300000D02*
X91019525Y-55300000D01*
X90299525Y-55220000D02*
X90299525Y-55130000D01*
X90899525Y-55130000D02*
X90899525Y-55220000D01*
X90779525Y-55050000D02*
X90819525Y-55050000D01*
X82447498Y-48660000D02*
X89087498Y-55300000D01*
X90699525Y-55220000D02*
X90699525Y-55130000D01*
X91019525Y-55300000D02*
X91098406Y-55300000D01*
X133550000Y-70350000D02*
X133850000Y-70350000D01*
X90499525Y-55130000D02*
X90499525Y-55220000D01*
X90219525Y-55300000D02*
G75*
G03*
X90299500Y-55220000I-25J80000D01*
G01*
X90699525Y-55130000D02*
G75*
G02*
X90779525Y-55050025I79975J0D01*
G01*
X90299525Y-55130000D02*
G75*
G02*
X90379525Y-55050025I79975J0D01*
G01*
X90819525Y-55050000D02*
G75*
G02*
X90899500Y-55130000I-25J-80000D01*
G01*
X90619525Y-55300000D02*
G75*
G03*
X90699500Y-55220000I-25J80000D01*
G01*
X89899525Y-55130000D02*
G75*
G02*
X89979525Y-55050025I79975J0D01*
G01*
X90499525Y-55220000D02*
G75*
G03*
X90579525Y-55299975I79975J0D01*
G01*
X90419525Y-55050000D02*
G75*
G02*
X90499500Y-55130000I-25J-80000D01*
G01*
X90019525Y-55050000D02*
G75*
G02*
X90099500Y-55130000I-25J-80000D01*
G01*
X90899525Y-55220000D02*
G75*
G03*
X90979525Y-55299975I79975J0D01*
G01*
X89819525Y-55300000D02*
G75*
G03*
X89899500Y-55220000I-25J80000D01*
G01*
X90099525Y-55220000D02*
G75*
G03*
X90179525Y-55299975I79975J0D01*
G01*
%TO.N,/RX0_DN_C*%
X133199000Y-70283257D02*
X133466744Y-70551000D01*
X134656000Y-70551000D02*
X135207000Y-70000000D01*
X81030900Y-48861000D02*
X82364244Y-48861000D01*
X89004244Y-55501000D02*
X120726744Y-55501000D01*
X133466744Y-70551000D02*
X134656000Y-70551000D01*
X133199000Y-67973256D02*
X133199000Y-70283257D01*
X80567500Y-49324400D02*
X81030900Y-48861000D01*
X82364244Y-48861000D02*
X89004244Y-55501000D01*
X120726744Y-55501000D02*
X133199000Y-67973256D01*
%TO.N,/TX1_DN*%
X71615744Y-50300000D02*
X73360532Y-50300000D01*
X73360532Y-50300000D02*
X74800532Y-48860000D01*
X71300000Y-49984256D02*
X71615744Y-50300000D01*
X78968100Y-48860000D02*
X79432500Y-49324400D01*
X74800532Y-48860000D02*
X78968100Y-48860000D01*
X71300000Y-48740800D02*
X71300000Y-49984256D01*
X71834000Y-48206800D02*
X71300000Y-48740800D01*
%TO.N,/RX1_DP*%
X74796800Y-50451000D02*
X75983500Y-50451000D01*
X75983500Y-50451000D02*
X76432500Y-50900000D01*
X72748400Y-52499400D02*
X74796800Y-50451000D01*
%TO.N,/TX0_DP_C*%
X130410000Y-67040400D02*
X130410000Y-68675600D01*
X78016500Y-50451000D02*
X82354244Y-50451000D01*
X82354244Y-50451000D02*
X88953244Y-57050000D01*
X77567500Y-50900000D02*
X78016500Y-50451000D01*
X90220282Y-57050000D02*
X90316990Y-57050000D01*
X130410000Y-68675600D02*
X130000000Y-69085600D01*
X90316990Y-57050000D02*
X120419600Y-57050000D01*
X90180282Y-57050000D02*
X90220282Y-57050000D01*
X89980282Y-57300000D02*
X90020282Y-57300000D01*
X88953244Y-57050000D02*
X89820282Y-57050000D01*
X120419600Y-57050000D02*
X130410000Y-67040400D01*
X90100282Y-57220000D02*
X90100282Y-57130000D01*
X89900282Y-57130000D02*
X89900282Y-57220000D01*
X89900282Y-57220000D02*
G75*
G03*
X89980282Y-57300018I80018J0D01*
G01*
X90020282Y-57300000D02*
G75*
G03*
X90100300Y-57220000I18J80000D01*
G01*
X90100282Y-57130000D02*
G75*
G02*
X90180282Y-57049982I80018J0D01*
G01*
X89820282Y-57050000D02*
G75*
G02*
X89900300Y-57130000I18J-80000D01*
G01*
%TO.N,/TX0_DN_C*%
X82437500Y-50250000D02*
X78017500Y-50250000D01*
X131016000Y-69085600D02*
X130610000Y-68679600D01*
X89037500Y-56850000D02*
X82437500Y-50250000D01*
X78017500Y-50250000D02*
X77567500Y-49800000D01*
X130610000Y-68679600D02*
X130610000Y-66935000D01*
X130610000Y-66935000D02*
X120525000Y-56850000D01*
X120525000Y-56850000D02*
X89037500Y-56850000D01*
%TO.N,/RX1_DN*%
X73568200Y-51381800D02*
X74700000Y-50250000D01*
X75178884Y-50250000D02*
X75218884Y-50250000D01*
X74898884Y-50170000D02*
X74898884Y-50080000D01*
X75218884Y-50250000D02*
X75290971Y-50250000D01*
X75982500Y-50250000D02*
X76432500Y-49800000D01*
X72748400Y-51381800D02*
X73568200Y-51381800D01*
X74978884Y-50000000D02*
X75018884Y-50000000D01*
X75290971Y-50250000D02*
X75982500Y-50250000D01*
X74700000Y-50250000D02*
X74818884Y-50250000D01*
X75098884Y-50080000D02*
X75098884Y-50170000D01*
X74818884Y-50250000D02*
G75*
G03*
X74898900Y-50170000I16J80000D01*
G01*
X75018884Y-50000000D02*
G75*
G02*
X75098900Y-50080000I16J-80000D01*
G01*
X74898884Y-50080000D02*
G75*
G02*
X74978884Y-49999984I80016J0D01*
G01*
X75098884Y-50170000D02*
G75*
G03*
X75178884Y-50250016I80016J0D01*
G01*
%TO.N,/RX0_DP*%
X74801800Y-47271000D02*
X75978500Y-47271000D01*
X72748400Y-49324400D02*
X74801800Y-47271000D01*
X75978500Y-47271000D02*
X76432500Y-47725000D01*
%TO.N,/TX1_DP_C*%
X120993002Y-53950000D02*
X134600000Y-67556998D01*
X134600000Y-68676600D02*
X134191000Y-69085600D01*
X90282674Y-53950000D02*
X120993002Y-53950000D01*
X134600000Y-67556998D02*
X134600000Y-68676600D01*
X89037500Y-53950000D02*
X89820221Y-53950000D01*
X90100221Y-54120000D02*
X90100221Y-54030000D01*
X82367500Y-47280000D02*
X89037500Y-53950000D01*
X77567500Y-47725000D02*
X78012500Y-47280000D01*
X89980221Y-54200000D02*
X90020221Y-54200000D01*
X90180221Y-53950000D02*
X90220221Y-53950000D01*
X78012500Y-47280000D02*
X82367500Y-47280000D01*
X89900221Y-54030000D02*
X89900221Y-54120000D01*
X90220221Y-53950000D02*
X90282674Y-53950000D01*
X90020221Y-54200000D02*
G75*
G03*
X90100200Y-54120000I-21J80000D01*
G01*
X89820221Y-53950000D02*
G75*
G02*
X89900200Y-54030000I-21J-80000D01*
G01*
X90100221Y-54030000D02*
G75*
G02*
X90180221Y-53950021I79979J0D01*
G01*
X89900221Y-54120000D02*
G75*
G03*
X89980221Y-54199979I79979J0D01*
G01*
%TO.N,/RX0_DN*%
X72748400Y-48206800D02*
X73581744Y-48206800D01*
X73581744Y-48206800D02*
X74718544Y-47070000D01*
X74900833Y-46990000D02*
X74900833Y-46900000D01*
X75100833Y-46900000D02*
X75100833Y-46990000D01*
X75220833Y-47070000D02*
X75286034Y-47070000D01*
X75982500Y-47070000D02*
X76432500Y-46620000D01*
X74718544Y-47070000D02*
X74820833Y-47070000D01*
X75180833Y-47070000D02*
X75220833Y-47070000D01*
X75286034Y-47070000D02*
X75982500Y-47070000D01*
X74980833Y-46820000D02*
X75020833Y-46820000D01*
X74900833Y-46900000D02*
G75*
G02*
X74980833Y-46820033I79967J0D01*
G01*
X75100833Y-46990000D02*
G75*
G03*
X75180833Y-47069967I79967J0D01*
G01*
X75020833Y-46820000D02*
G75*
G02*
X75100800Y-46900000I-33J-80000D01*
G01*
X74820833Y-47070000D02*
G75*
G03*
X74900800Y-46990000I-33J80000D01*
G01*
%TO.N,/TX1_DN_C*%
X134800000Y-67450000D02*
X121100000Y-53750000D01*
X121100000Y-53750000D02*
X89121756Y-53750000D01*
X78026500Y-47079000D02*
X77567500Y-46620000D01*
X89121756Y-53750000D02*
X82450756Y-47079000D01*
X134800000Y-68678600D02*
X134800000Y-67450000D01*
X135207000Y-69085600D02*
X134800000Y-68678600D01*
X82450756Y-47079000D02*
X78026500Y-47079000D01*
%TD*%
%TA.AperFunction,Conductor*%
%TO.N,GND*%
G36*
X83003182Y-45600918D02*
G01*
X83071123Y-45609863D01*
X83083476Y-45613173D01*
X83143787Y-45638155D01*
X83154865Y-45644551D01*
X83209118Y-45686181D01*
X83214126Y-45690597D01*
X85539389Y-48041948D01*
X89355109Y-51900479D01*
X89356110Y-51901789D01*
X89382965Y-51928649D01*
X89383149Y-51928832D01*
X89392597Y-51938387D01*
X89392838Y-51938488D01*
X89396324Y-51941962D01*
X89396330Y-51941977D01*
X89396384Y-51942021D01*
X89420771Y-51966412D01*
X89519116Y-52032135D01*
X89628392Y-52077409D01*
X89744401Y-52100495D01*
X89744410Y-52100495D01*
X89783604Y-52100498D01*
X89783609Y-52100500D01*
X89803544Y-52100500D01*
X89830472Y-52100502D01*
X89830472Y-52100501D01*
X89837714Y-52100502D01*
X89837735Y-52100500D01*
X120473071Y-52100500D01*
X120496787Y-52100500D01*
X120503182Y-52100918D01*
X120597005Y-52113271D01*
X120609358Y-52116581D01*
X120693791Y-52151555D01*
X120704868Y-52157950D01*
X120779939Y-52215554D01*
X120784758Y-52219780D01*
X136180213Y-67615236D01*
X136184439Y-67620055D01*
X136242047Y-67695131D01*
X136248443Y-67706209D01*
X136283416Y-67790642D01*
X136286727Y-67802997D01*
X136299081Y-67896826D01*
X136299500Y-67903222D01*
X136299500Y-70996786D01*
X136299081Y-71003182D01*
X136286728Y-71097004D01*
X136283417Y-71109359D01*
X136248445Y-71193790D01*
X136242049Y-71204868D01*
X136186416Y-71277371D01*
X136177371Y-71286416D01*
X136104868Y-71342049D01*
X136093790Y-71348445D01*
X136009359Y-71383417D01*
X135997004Y-71386728D01*
X135903183Y-71399081D01*
X135896787Y-71399500D01*
X129003213Y-71399500D01*
X128996817Y-71399081D01*
X128902995Y-71386728D01*
X128890640Y-71383417D01*
X128806209Y-71348445D01*
X128795131Y-71342049D01*
X128768360Y-71321507D01*
X128722625Y-71286413D01*
X128713586Y-71277374D01*
X128657949Y-71204867D01*
X128651554Y-71193790D01*
X128616582Y-71109359D01*
X128613271Y-71097004D01*
X128600919Y-71003182D01*
X128600500Y-70996786D01*
X128600500Y-68376066D01*
X128600499Y-68376052D01*
X128600499Y-68340859D01*
X128600499Y-68340856D01*
X128577423Y-68224841D01*
X128532966Y-68117512D01*
X128532157Y-68115559D01*
X128466440Y-68017206D01*
X128424616Y-67975382D01*
X128405576Y-67956341D01*
X128405574Y-67956340D01*
X119538970Y-59089736D01*
X119538968Y-59089732D01*
X119482794Y-59033558D01*
X119384441Y-58967841D01*
X119275160Y-58922576D01*
X119159144Y-58899500D01*
X119119991Y-58899500D01*
X87926929Y-58899500D01*
X87900000Y-58899500D01*
X87832340Y-58899500D01*
X87832335Y-58899500D01*
X87700419Y-58929608D01*
X87700410Y-58929612D01*
X87578492Y-58988325D01*
X87472695Y-59072695D01*
X87388325Y-59178492D01*
X87329612Y-59300410D01*
X87329608Y-59300419D01*
X87299500Y-59432335D01*
X87299500Y-61165586D01*
X87299081Y-61171982D01*
X87286728Y-61265804D01*
X87283417Y-61278159D01*
X87248445Y-61362590D01*
X87242049Y-61373668D01*
X87186416Y-61446171D01*
X87177371Y-61455216D01*
X87104868Y-61510849D01*
X87093790Y-61517245D01*
X87073751Y-61525545D01*
X87036248Y-61525545D01*
X87009730Y-61499026D01*
X87006000Y-61480275D01*
X87006000Y-60774105D01*
X86994395Y-60715763D01*
X86950192Y-60649607D01*
X86884036Y-60605404D01*
X86825695Y-60593800D01*
X86431000Y-60593800D01*
X86431000Y-61519300D01*
X86417385Y-61552166D01*
X86396925Y-61475807D01*
X86331099Y-61361793D01*
X86238007Y-61268701D01*
X86123993Y-61202875D01*
X85996826Y-61168800D01*
X85865174Y-61168800D01*
X85738007Y-61202875D01*
X85623993Y-61268701D01*
X85530901Y-61361793D01*
X85465075Y-61475807D01*
X85444614Y-61552166D01*
X85431000Y-61519300D01*
X85431000Y-60593800D01*
X85036305Y-60593800D01*
X84977963Y-60605404D01*
X84911807Y-60649607D01*
X84867604Y-60715763D01*
X84856000Y-60774105D01*
X84856000Y-61519300D01*
X84841648Y-61553948D01*
X84807000Y-61568300D01*
X84803213Y-61568300D01*
X84796817Y-61567881D01*
X84702995Y-61555528D01*
X84690640Y-61552217D01*
X84606209Y-61517245D01*
X84595131Y-61510849D01*
X84549463Y-61475807D01*
X84522625Y-61455213D01*
X84513586Y-61446174D01*
X84457949Y-61373667D01*
X84451554Y-61362590D01*
X84416582Y-61278159D01*
X84413271Y-61265804D01*
X84400919Y-61171982D01*
X84400500Y-61165586D01*
X84400500Y-57776066D01*
X84400499Y-57776052D01*
X84400499Y-57740859D01*
X84400499Y-57740856D01*
X84377423Y-57624841D01*
X84332966Y-57517512D01*
X84332157Y-57515559D01*
X84266440Y-57417206D01*
X84224616Y-57375382D01*
X84205576Y-57356341D01*
X84205574Y-57356340D01*
X80938970Y-54089736D01*
X80938968Y-54089732D01*
X80882794Y-54033558D01*
X80784441Y-53967841D01*
X80675160Y-53922576D01*
X80559144Y-53899500D01*
X80559141Y-53899500D01*
X71003213Y-53899500D01*
X70996817Y-53899081D01*
X70902995Y-53886728D01*
X70890640Y-53883417D01*
X70806209Y-53848445D01*
X70795131Y-53842049D01*
X70768360Y-53821507D01*
X70722625Y-53786413D01*
X70713586Y-53777374D01*
X70657949Y-53704867D01*
X70651554Y-53693790D01*
X70616582Y-53609359D01*
X70613271Y-53597004D01*
X70600919Y-53503182D01*
X70600500Y-53496786D01*
X70600500Y-51885865D01*
X71149500Y-51885865D01*
X71149500Y-53214194D01*
X71155047Y-53227582D01*
X71155048Y-53227587D01*
X71155049Y-53227587D01*
X71172412Y-53269508D01*
X71531493Y-53628588D01*
X71559150Y-53640043D01*
X71586808Y-53651500D01*
X71586809Y-53651500D01*
X73378934Y-53651500D01*
X73378936Y-53651500D01*
X73401848Y-53642009D01*
X73434252Y-53628588D01*
X73602504Y-53460336D01*
X75844500Y-53460336D01*
X78183034Y-53460336D01*
X78183034Y-52641881D01*
X75844500Y-52641881D01*
X75844500Y-53460336D01*
X73602504Y-53460336D01*
X74847988Y-52214852D01*
X74882636Y-52200500D01*
X78900464Y-52200500D01*
X78935112Y-52214852D01*
X78958421Y-52238161D01*
X78972773Y-52272809D01*
X78971832Y-52282367D01*
X78964500Y-52319234D01*
X78964500Y-52679562D01*
X78979324Y-52754091D01*
X78979325Y-52754094D01*
X79035793Y-52838606D01*
X79066771Y-52859304D01*
X79120309Y-52895076D01*
X79194833Y-52909900D01*
X79670166Y-52909899D01*
X79744691Y-52895076D01*
X79829206Y-52838606D01*
X79885676Y-52754091D01*
X79900500Y-52679567D01*
X79900499Y-52319234D01*
X79885676Y-52244709D01*
X79885674Y-52244707D01*
X79885674Y-52244705D01*
X79829206Y-52160193D01*
X79744690Y-52103723D01*
X79670170Y-52088900D01*
X79670167Y-52088900D01*
X79255136Y-52088900D01*
X79220488Y-52074548D01*
X79121187Y-51975247D01*
X79106835Y-51940599D01*
X79121187Y-51905951D01*
X79220487Y-51806651D01*
X79255135Y-51792299D01*
X79670163Y-51792299D01*
X79670166Y-51792299D01*
X79744691Y-51777476D01*
X79829206Y-51721006D01*
X79885676Y-51636491D01*
X79900500Y-51561967D01*
X79900499Y-51201634D01*
X79885676Y-51127109D01*
X79885674Y-51127107D01*
X79885674Y-51127105D01*
X79829206Y-51042593D01*
X79744690Y-50986123D01*
X79670168Y-50971300D01*
X79194837Y-50971300D01*
X79120308Y-50986124D01*
X79120305Y-50986125D01*
X79035793Y-51042593D01*
X78979323Y-51127109D01*
X78964500Y-51201629D01*
X78964500Y-51561964D01*
X78971833Y-51598830D01*
X78970853Y-51603751D01*
X78972774Y-51608387D01*
X78967304Y-51621592D01*
X78964515Y-51635612D01*
X78958423Y-51643035D01*
X78916313Y-51685147D01*
X78881665Y-51699500D01*
X76499398Y-51699500D01*
X76464750Y-51685148D01*
X76450398Y-51650505D01*
X76450397Y-51643479D01*
X76448126Y-51636490D01*
X76427817Y-51574011D01*
X76427815Y-51574008D01*
X76427814Y-51574006D01*
X76384869Y-51514931D01*
X76384867Y-51514928D01*
X76325756Y-51472016D01*
X76325754Y-51472015D01*
X76325755Y-51472015D01*
X76256280Y-51449480D01*
X76256276Y-51449479D01*
X76256275Y-51449479D01*
X76256273Y-51449479D01*
X76219753Y-51449500D01*
X76149913Y-51449500D01*
X76149846Y-51449527D01*
X76145050Y-51449529D01*
X76145043Y-51449526D01*
X76145013Y-51449529D01*
X76143428Y-51449528D01*
X76143427Y-51449528D01*
X76073963Y-51472060D01*
X76028677Y-51504937D01*
X75992207Y-51513678D01*
X75971104Y-51504937D01*
X75925819Y-51472062D01*
X75925756Y-51472016D01*
X75925754Y-51472015D01*
X75925755Y-51472015D01*
X75856280Y-51449480D01*
X75856276Y-51449479D01*
X75856275Y-51449479D01*
X75856273Y-51449479D01*
X75819753Y-51449500D01*
X75749913Y-51449500D01*
X75749846Y-51449527D01*
X75745050Y-51449529D01*
X75745043Y-51449526D01*
X75745013Y-51449529D01*
X75743428Y-51449528D01*
X75743427Y-51449528D01*
X75673963Y-51472060D01*
X75628677Y-51504937D01*
X75592207Y-51513678D01*
X75571104Y-51504937D01*
X75525819Y-51472062D01*
X75525756Y-51472016D01*
X75525754Y-51472015D01*
X75525755Y-51472015D01*
X75456280Y-51449480D01*
X75456276Y-51449479D01*
X75456275Y-51449479D01*
X75456273Y-51449479D01*
X75419753Y-51449500D01*
X75349913Y-51449500D01*
X75349846Y-51449527D01*
X75345050Y-51449529D01*
X75345043Y-51449526D01*
X75345013Y-51449529D01*
X75343428Y-51449528D01*
X75343427Y-51449528D01*
X75273963Y-51472060D01*
X75228677Y-51504937D01*
X75192207Y-51513678D01*
X75171104Y-51504937D01*
X75125819Y-51472062D01*
X75125756Y-51472016D01*
X75125754Y-51472015D01*
X75125755Y-51472015D01*
X75056280Y-51449480D01*
X75056276Y-51449479D01*
X75056275Y-51449479D01*
X75056273Y-51449479D01*
X75019753Y-51449500D01*
X74949913Y-51449500D01*
X74949846Y-51449527D01*
X74945050Y-51449529D01*
X74945043Y-51449526D01*
X74945013Y-51449529D01*
X74943428Y-51449528D01*
X74943427Y-51449528D01*
X74873963Y-51472060D01*
X74873958Y-51472062D01*
X74814869Y-51514960D01*
X74814865Y-51514964D01*
X74771928Y-51574031D01*
X74771926Y-51574035D01*
X74749350Y-51643487D01*
X74749350Y-51647060D01*
X74749349Y-51650514D01*
X74743059Y-51665686D01*
X74734997Y-51685148D01*
X74734989Y-51685150D01*
X74734987Y-51685158D01*
X74717573Y-51692365D01*
X74700349Y-51699500D01*
X74685808Y-51699500D01*
X74658150Y-51710955D01*
X74658150Y-51710956D01*
X74630493Y-51722412D01*
X74630491Y-51722413D01*
X73217756Y-53135148D01*
X73183108Y-53149500D01*
X72878945Y-53149500D01*
X72844297Y-53135148D01*
X72829945Y-53100500D01*
X72833675Y-53081749D01*
X72839290Y-53068191D01*
X72848900Y-53044991D01*
X72848900Y-52998899D01*
X72863252Y-52964251D01*
X72897900Y-52949899D01*
X73108295Y-52949899D01*
X73108298Y-52949899D01*
X73137613Y-52944069D01*
X73170857Y-52921857D01*
X73193069Y-52888613D01*
X73198900Y-52859299D01*
X73198899Y-52282034D01*
X73213250Y-52247388D01*
X74844787Y-50615852D01*
X74879435Y-50601500D01*
X75900864Y-50601500D01*
X75935512Y-50615852D01*
X75958421Y-50638761D01*
X75972773Y-50673409D01*
X75971832Y-50682967D01*
X75964500Y-50719834D01*
X75964500Y-51080162D01*
X75979324Y-51154691D01*
X75979325Y-51154694D01*
X76035793Y-51239206D01*
X76120306Y-51295674D01*
X76120309Y-51295676D01*
X76194833Y-51310500D01*
X76670166Y-51310499D01*
X76744691Y-51295676D01*
X76829206Y-51239206D01*
X76885676Y-51154691D01*
X76900500Y-51080167D01*
X76900499Y-50719834D01*
X76885676Y-50645309D01*
X76885674Y-50645307D01*
X76885674Y-50645305D01*
X76829206Y-50560793D01*
X76744690Y-50504323D01*
X76670170Y-50489500D01*
X76670167Y-50489500D01*
X76255136Y-50489500D01*
X76220488Y-50475148D01*
X76129987Y-50384647D01*
X76115635Y-50349999D01*
X76129987Y-50315351D01*
X76220487Y-50224851D01*
X76255135Y-50210499D01*
X76670163Y-50210499D01*
X76670166Y-50210499D01*
X76744691Y-50195676D01*
X76829206Y-50139206D01*
X76885676Y-50054691D01*
X76900500Y-49980167D01*
X76900499Y-49619834D01*
X76900498Y-49619829D01*
X77099500Y-49619829D01*
X77099500Y-49980162D01*
X77114324Y-50054691D01*
X77114325Y-50054694D01*
X77170793Y-50139206D01*
X77255306Y-50195674D01*
X77255309Y-50195676D01*
X77329833Y-50210500D01*
X77744863Y-50210499D01*
X77779511Y-50224851D01*
X77870011Y-50315351D01*
X77884363Y-50349999D01*
X77870011Y-50384647D01*
X77779510Y-50475148D01*
X77744862Y-50489500D01*
X77329837Y-50489500D01*
X77255308Y-50504324D01*
X77255305Y-50504325D01*
X77170793Y-50560793D01*
X77114323Y-50645309D01*
X77099500Y-50719829D01*
X77099500Y-51080162D01*
X77114324Y-51154691D01*
X77114325Y-51154694D01*
X77170793Y-51239206D01*
X77255306Y-51295674D01*
X77255309Y-51295676D01*
X77329833Y-51310500D01*
X77805166Y-51310499D01*
X77879691Y-51295676D01*
X77964206Y-51239206D01*
X78020676Y-51154691D01*
X78035500Y-51080167D01*
X78035499Y-50719834D01*
X78028166Y-50682968D01*
X78029145Y-50678046D01*
X78027225Y-50673410D01*
X78032694Y-50660207D01*
X78035483Y-50646188D01*
X78041578Y-50638762D01*
X78064490Y-50615851D01*
X78099137Y-50601500D01*
X82271608Y-50601500D01*
X82306256Y-50615852D01*
X88867992Y-57177587D01*
X88884190Y-57184295D01*
X88884193Y-57184298D01*
X88884194Y-57184297D01*
X88923308Y-57200500D01*
X89700782Y-57200500D01*
X89717997Y-57207631D01*
X89735320Y-57214742D01*
X89735352Y-57214819D01*
X89735430Y-57214852D01*
X89748100Y-57245302D01*
X89748830Y-57245157D01*
X89748847Y-57245242D01*
X89749088Y-57247676D01*
X89749782Y-57249344D01*
X89749782Y-57249936D01*
X89749783Y-57249940D01*
X89749799Y-57254696D01*
X89749786Y-57254726D01*
X89749799Y-57254852D01*
X89749799Y-57256504D01*
X89772354Y-57325930D01*
X89772356Y-57325935D01*
X89815262Y-57385001D01*
X89859575Y-57417206D01*
X89874318Y-57427920D01*
X89943746Y-57450492D01*
X89948223Y-57450492D01*
X89950330Y-57450493D01*
X89950346Y-57450500D01*
X89980248Y-57450500D01*
X90014599Y-57450507D01*
X90014601Y-57450506D01*
X90019925Y-57450507D01*
X90019998Y-57450500D01*
X90055365Y-57450500D01*
X90055466Y-57450488D01*
X90056758Y-57450489D01*
X90126208Y-57427938D01*
X90185288Y-57385025D01*
X90228214Y-57325955D01*
X90250781Y-57256510D01*
X90250781Y-57254696D01*
X90250782Y-57249495D01*
X90259489Y-57228477D01*
X90265134Y-57214852D01*
X90265135Y-57214851D01*
X90265137Y-57214848D01*
X90284924Y-57206654D01*
X90299782Y-57200500D01*
X120336964Y-57200500D01*
X120371612Y-57214852D01*
X130245148Y-67088387D01*
X130259500Y-67123035D01*
X130259500Y-68586100D01*
X130245148Y-68620748D01*
X130210500Y-68635100D01*
X129640105Y-68635100D01*
X129640104Y-68635100D01*
X129640102Y-68635101D01*
X129610787Y-68640931D01*
X129610786Y-68640931D01*
X129610784Y-68640932D01*
X129610783Y-68640932D01*
X129577543Y-68663142D01*
X129555330Y-68696386D01*
X129555330Y-68696387D01*
X129549500Y-68725695D01*
X129549500Y-68936100D01*
X129535148Y-68970748D01*
X129500500Y-68985100D01*
X129469991Y-68985100D01*
X129430009Y-68985100D01*
X129430007Y-68985100D01*
X129430004Y-68985101D01*
X129418249Y-68989970D01*
X129380746Y-68989968D01*
X129354229Y-68963448D01*
X129350500Y-68944699D01*
X129350500Y-67368464D01*
X129334297Y-67329350D01*
X129334297Y-67329349D01*
X129334295Y-67329346D01*
X129327587Y-67313148D01*
X122608240Y-60593800D01*
X120286854Y-58272413D01*
X120286852Y-58272412D01*
X120254448Y-58258990D01*
X120231536Y-58249500D01*
X91163368Y-58249500D01*
X91099800Y-58249500D01*
X91065152Y-58235148D01*
X91050800Y-58200500D01*
X91050800Y-58193492D01*
X91050800Y-58193491D01*
X91028235Y-58124047D01*
X90985314Y-58064975D01*
X90926240Y-58022058D01*
X90856795Y-57999498D01*
X90856794Y-57999498D01*
X90820348Y-57999499D01*
X90820345Y-57999499D01*
X90814637Y-57999498D01*
X90814636Y-57999498D01*
X90808101Y-57999498D01*
X90800583Y-57999498D01*
X90800573Y-57999494D01*
X90743778Y-57999496D01*
X90674344Y-58022061D01*
X90674341Y-58022062D01*
X90629098Y-58054935D01*
X90592631Y-58063690D01*
X90571496Y-58054936D01*
X90526242Y-58022059D01*
X90526240Y-58022058D01*
X90456795Y-57999498D01*
X90456794Y-57999498D01*
X90420348Y-57999499D01*
X90420345Y-57999499D01*
X90414637Y-57999498D01*
X90414636Y-57999498D01*
X90408101Y-57999498D01*
X90400583Y-57999498D01*
X90400573Y-57999494D01*
X90343778Y-57999496D01*
X90274344Y-58022061D01*
X90274341Y-58022062D01*
X90229098Y-58054935D01*
X90192631Y-58063690D01*
X90171496Y-58054936D01*
X90126242Y-58022059D01*
X90126240Y-58022058D01*
X90056795Y-57999498D01*
X90056794Y-57999498D01*
X90020348Y-57999499D01*
X90020345Y-57999499D01*
X90014637Y-57999498D01*
X90014636Y-57999498D01*
X90008101Y-57999498D01*
X90000583Y-57999498D01*
X90000573Y-57999494D01*
X89943778Y-57999496D01*
X89874344Y-58022061D01*
X89874340Y-58022063D01*
X89815272Y-58064981D01*
X89772357Y-58124052D01*
X89772357Y-58124053D01*
X89749796Y-58193492D01*
X89749795Y-58193494D01*
X89749795Y-58200500D01*
X89735443Y-58235148D01*
X89700795Y-58249500D01*
X89082636Y-58249500D01*
X89047988Y-58235148D01*
X82535254Y-51722413D01*
X82535252Y-51722412D01*
X82502848Y-51708990D01*
X82479936Y-51699500D01*
X81118335Y-51699500D01*
X81083687Y-51685148D01*
X81041577Y-51643038D01*
X81027225Y-51608390D01*
X81028167Y-51598830D01*
X81035499Y-51561970D01*
X81035500Y-51561967D01*
X81035499Y-51201634D01*
X81020676Y-51127109D01*
X81020674Y-51127107D01*
X81020674Y-51127105D01*
X80964206Y-51042593D01*
X80879690Y-50986123D01*
X80805168Y-50971300D01*
X80329837Y-50971300D01*
X80255308Y-50986124D01*
X80255305Y-50986125D01*
X80170793Y-51042593D01*
X80114323Y-51127109D01*
X80099500Y-51201629D01*
X80099500Y-51561962D01*
X80114324Y-51636491D01*
X80114325Y-51636494D01*
X80170793Y-51721006D01*
X80217797Y-51752412D01*
X80255309Y-51777476D01*
X80329833Y-51792300D01*
X80744863Y-51792299D01*
X80779511Y-51806651D01*
X80878812Y-51905952D01*
X80893164Y-51940600D01*
X80878812Y-51975248D01*
X80779511Y-52074548D01*
X80744863Y-52088900D01*
X80329837Y-52088900D01*
X80255308Y-52103724D01*
X80255305Y-52103725D01*
X80170793Y-52160193D01*
X80114323Y-52244709D01*
X80099500Y-52319229D01*
X80099500Y-52679562D01*
X80114324Y-52754091D01*
X80114325Y-52754094D01*
X80170793Y-52838606D01*
X80201771Y-52859304D01*
X80255309Y-52895076D01*
X80329833Y-52909900D01*
X80805166Y-52909899D01*
X80879691Y-52895076D01*
X80964206Y-52838606D01*
X81020676Y-52754091D01*
X81035500Y-52679567D01*
X81035499Y-52319234D01*
X81028166Y-52282367D01*
X81029145Y-52277445D01*
X81027225Y-52272809D01*
X81032694Y-52259606D01*
X81035483Y-52245587D01*
X81041578Y-52238161D01*
X81064889Y-52214851D01*
X81075555Y-52210433D01*
X81099536Y-52200500D01*
X82267364Y-52200500D01*
X82302012Y-52214852D01*
X88814744Y-58727585D01*
X88814747Y-58727587D01*
X88814748Y-58727588D01*
X88847149Y-58741008D01*
X88847150Y-58741009D01*
X88847151Y-58741009D01*
X88870064Y-58750500D01*
X120018964Y-58750500D01*
X120053612Y-58764852D01*
X128835148Y-67546388D01*
X128849500Y-67581036D01*
X128849500Y-70314192D01*
X128854644Y-70326608D01*
X128854645Y-70326614D01*
X128854646Y-70326614D01*
X128872412Y-70369509D01*
X128953402Y-70450498D01*
X129180493Y-70677588D01*
X129208150Y-70689043D01*
X129235808Y-70700500D01*
X129235809Y-70700500D01*
X130495934Y-70700500D01*
X130495936Y-70700500D01*
X130518848Y-70691009D01*
X130551252Y-70677588D01*
X130763987Y-70464850D01*
X130798635Y-70450499D01*
X131375895Y-70450499D01*
X131375898Y-70450499D01*
X131405213Y-70444669D01*
X131438457Y-70422457D01*
X131460669Y-70389213D01*
X131466500Y-70359899D01*
X131466500Y-70149500D01*
X131480852Y-70114852D01*
X131515500Y-70100500D01*
X131569989Y-70100500D01*
X131569991Y-70100500D01*
X131606929Y-70085200D01*
X131606931Y-70085198D01*
X131606932Y-70085198D01*
X131635198Y-70056932D01*
X131635198Y-70056931D01*
X131635200Y-70056929D01*
X131650500Y-70019991D01*
X131650500Y-69065609D01*
X131635200Y-69028671D01*
X131635198Y-69028669D01*
X131635198Y-69028668D01*
X131606932Y-69000402D01*
X131606930Y-69000401D01*
X131606929Y-69000400D01*
X131585292Y-68991437D01*
X131569992Y-68985100D01*
X131569991Y-68985100D01*
X131515499Y-68985100D01*
X131480851Y-68970748D01*
X131466499Y-68936100D01*
X131466499Y-68725705D01*
X131466499Y-68725702D01*
X131460669Y-68696387D01*
X131460667Y-68696384D01*
X131460667Y-68696383D01*
X131438457Y-68663143D01*
X131405212Y-68640930D01*
X131375904Y-68635100D01*
X131375899Y-68635100D01*
X130809500Y-68635100D01*
X130774852Y-68620748D01*
X130760500Y-68586100D01*
X130760500Y-66905064D01*
X130749043Y-66877407D01*
X130749042Y-66877404D01*
X130737588Y-66849749D01*
X130737582Y-66849743D01*
X120610254Y-56722413D01*
X120610252Y-56722412D01*
X120577848Y-56708990D01*
X120554936Y-56699500D01*
X89120135Y-56699500D01*
X89085487Y-56685148D01*
X82522754Y-50122413D01*
X82522752Y-50122412D01*
X82490348Y-50108990D01*
X82467436Y-50099500D01*
X78100135Y-50099500D01*
X78065487Y-50085148D01*
X78041577Y-50061238D01*
X78027225Y-50026590D01*
X78028167Y-50017030D01*
X78035499Y-49980170D01*
X78035500Y-49980167D01*
X78035499Y-49619834D01*
X78020676Y-49545309D01*
X78020674Y-49545307D01*
X78020674Y-49545305D01*
X77964206Y-49460793D01*
X77879690Y-49404323D01*
X77805168Y-49389500D01*
X77329837Y-49389500D01*
X77255308Y-49404324D01*
X77255305Y-49404325D01*
X77170793Y-49460793D01*
X77114323Y-49545309D01*
X77099500Y-49619829D01*
X76900498Y-49619829D01*
X76885676Y-49545309D01*
X76885674Y-49545307D01*
X76885674Y-49545305D01*
X76829206Y-49460793D01*
X76744690Y-49404323D01*
X76670168Y-49389500D01*
X76194837Y-49389500D01*
X76120308Y-49404324D01*
X76120305Y-49404325D01*
X76035793Y-49460793D01*
X75979323Y-49545309D01*
X75964500Y-49619829D01*
X75964500Y-49980164D01*
X75971833Y-50017030D01*
X75970853Y-50021951D01*
X75972774Y-50026587D01*
X75967304Y-50039793D01*
X75964515Y-50053812D01*
X75958423Y-50061236D01*
X75934512Y-50085148D01*
X75899864Y-50099500D01*
X75298399Y-50099500D01*
X75263751Y-50085148D01*
X75249399Y-50050500D01*
X75249399Y-50043486D01*
X75226831Y-49974037D01*
X75226830Y-49974035D01*
X75183903Y-49914963D01*
X75124820Y-49872048D01*
X75124819Y-49872047D01*
X75055364Y-49849493D01*
X75018939Y-49849499D01*
X75018925Y-49849499D01*
X75013212Y-49849498D01*
X75013204Y-49849494D01*
X75000544Y-49849496D01*
X74999153Y-49849496D01*
X74999114Y-49849480D01*
X74942348Y-49849491D01*
X74942347Y-49849491D01*
X74872918Y-49872062D01*
X74872912Y-49872065D01*
X74813851Y-49914987D01*
X74770942Y-49974056D01*
X74748384Y-50043492D01*
X74748384Y-50050500D01*
X74734032Y-50085148D01*
X74699384Y-50099500D01*
X74670064Y-50099500D01*
X74647151Y-50108990D01*
X74614748Y-50122412D01*
X74614746Y-50122413D01*
X74614745Y-50122413D01*
X73520212Y-51216948D01*
X73485564Y-51231300D01*
X73247899Y-51231300D01*
X73213251Y-51216948D01*
X73198899Y-51182300D01*
X73198899Y-51021905D01*
X73198899Y-51021902D01*
X73193069Y-50992587D01*
X73193067Y-50992584D01*
X73193067Y-50992583D01*
X73170857Y-50959343D01*
X73137612Y-50937130D01*
X73108304Y-50931300D01*
X73108299Y-50931300D01*
X72897900Y-50931300D01*
X72863252Y-50916948D01*
X72848900Y-50882300D01*
X72848900Y-50855011D01*
X72848899Y-50855007D01*
X72833600Y-50818071D01*
X72833598Y-50818069D01*
X72833598Y-50818068D01*
X72805332Y-50789802D01*
X72805330Y-50789801D01*
X72805329Y-50789800D01*
X72783692Y-50780837D01*
X72768392Y-50774500D01*
X72768391Y-50774500D01*
X71853991Y-50774500D01*
X71814009Y-50774500D01*
X71814007Y-50774500D01*
X71777069Y-50789801D01*
X71748801Y-50818069D01*
X71733500Y-50855007D01*
X71733500Y-50882300D01*
X71719148Y-50916948D01*
X71684500Y-50931300D01*
X71474105Y-50931300D01*
X71474104Y-50931300D01*
X71474102Y-50931301D01*
X71444787Y-50937131D01*
X71444786Y-50937131D01*
X71444784Y-50937132D01*
X71444783Y-50937132D01*
X71411543Y-50959342D01*
X71389330Y-50992586D01*
X71389330Y-50992587D01*
X71383500Y-51021895D01*
X71383500Y-51599163D01*
X71369148Y-51633811D01*
X71172413Y-51830546D01*
X71158990Y-51862949D01*
X71158990Y-51862951D01*
X71151391Y-51881299D01*
X71149500Y-51885865D01*
X70600500Y-51885865D01*
X70600500Y-48710864D01*
X71149500Y-48710864D01*
X71149500Y-48714628D01*
X71149500Y-50014194D01*
X71155047Y-50027582D01*
X71155048Y-50027587D01*
X71155049Y-50027587D01*
X71172412Y-50069508D01*
X71530492Y-50427587D01*
X71546690Y-50434295D01*
X71546693Y-50434298D01*
X71546694Y-50434297D01*
X71585808Y-50450500D01*
X71585809Y-50450500D01*
X73390466Y-50450500D01*
X73390468Y-50450500D01*
X73413380Y-50441009D01*
X73445784Y-50427588D01*
X74848519Y-49024851D01*
X74883167Y-49010500D01*
X78885464Y-49010500D01*
X78920112Y-49024852D01*
X78958421Y-49063161D01*
X78972773Y-49097809D01*
X78971832Y-49107367D01*
X78964500Y-49144234D01*
X78964500Y-49504562D01*
X78979324Y-49579091D01*
X78979325Y-49579094D01*
X79035793Y-49663606D01*
X79066771Y-49684304D01*
X79120309Y-49720076D01*
X79194833Y-49734900D01*
X79670166Y-49734899D01*
X79744691Y-49720076D01*
X79829206Y-49663606D01*
X79885676Y-49579091D01*
X79900500Y-49504567D01*
X79900499Y-49144234D01*
X79885676Y-49069709D01*
X79885674Y-49069707D01*
X79885674Y-49069705D01*
X79829206Y-48985193D01*
X79744690Y-48928723D01*
X79670170Y-48913900D01*
X79670167Y-48913900D01*
X79255136Y-48913900D01*
X79220488Y-48899548D01*
X79121186Y-48800247D01*
X79106834Y-48765599D01*
X79121184Y-48730954D01*
X79220487Y-48631650D01*
X79255135Y-48617299D01*
X79670163Y-48617299D01*
X79670166Y-48617299D01*
X79744691Y-48602476D01*
X79829206Y-48546006D01*
X79885676Y-48461491D01*
X79900500Y-48386967D01*
X79900499Y-48026634D01*
X79885676Y-47952109D01*
X79885674Y-47952107D01*
X79885674Y-47952105D01*
X79829206Y-47867593D01*
X79744690Y-47811123D01*
X79670168Y-47796300D01*
X79194837Y-47796300D01*
X79120308Y-47811124D01*
X79120305Y-47811125D01*
X79035793Y-47867593D01*
X78979323Y-47952109D01*
X78964500Y-48026629D01*
X78964500Y-48386964D01*
X78971833Y-48423830D01*
X78970853Y-48428751D01*
X78972774Y-48433387D01*
X78967304Y-48446593D01*
X78964515Y-48460612D01*
X78958423Y-48468036D01*
X78931312Y-48495148D01*
X78896664Y-48509500D01*
X76499099Y-48509500D01*
X76464451Y-48495148D01*
X76450099Y-48460505D01*
X76450098Y-48453481D01*
X76427524Y-48384025D01*
X76427523Y-48384023D01*
X76412225Y-48362975D01*
X76384586Y-48324946D01*
X76384584Y-48324944D01*
X76384583Y-48324943D01*
X76325491Y-48282033D01*
X76279177Y-48267002D01*
X76256022Y-48259487D01*
X76256021Y-48259487D01*
X76219505Y-48259500D01*
X76219443Y-48259500D01*
X76219301Y-48259484D01*
X76199838Y-48259491D01*
X76199763Y-48259460D01*
X76143002Y-48259479D01*
X76073572Y-48282064D01*
X76028387Y-48314910D01*
X75991922Y-48323674D01*
X75970785Y-48314924D01*
X75925491Y-48282033D01*
X75879177Y-48267002D01*
X75856022Y-48259487D01*
X75856021Y-48259487D01*
X75819505Y-48259500D01*
X75819443Y-48259500D01*
X75819301Y-48259484D01*
X75799838Y-48259491D01*
X75799763Y-48259460D01*
X75743002Y-48259479D01*
X75673572Y-48282064D01*
X75628387Y-48314910D01*
X75591922Y-48323674D01*
X75570785Y-48314924D01*
X75525491Y-48282033D01*
X75479177Y-48267002D01*
X75456022Y-48259487D01*
X75456021Y-48259487D01*
X75419505Y-48259500D01*
X75419443Y-48259500D01*
X75419301Y-48259484D01*
X75399838Y-48259491D01*
X75399763Y-48259460D01*
X75343002Y-48259479D01*
X75273572Y-48282064D01*
X75228387Y-48314910D01*
X75191922Y-48323674D01*
X75170785Y-48314924D01*
X75125491Y-48282033D01*
X75079177Y-48267002D01*
X75056022Y-48259487D01*
X75056021Y-48259487D01*
X75019505Y-48259500D01*
X75019443Y-48259500D01*
X75019301Y-48259484D01*
X74999838Y-48259491D01*
X74999763Y-48259460D01*
X74943002Y-48259479D01*
X74873572Y-48282064D01*
X74814524Y-48324987D01*
X74814523Y-48324989D01*
X74771618Y-48384063D01*
X74749065Y-48453496D01*
X74749065Y-48453497D01*
X74749065Y-48460496D01*
X74734717Y-48495145D01*
X74700071Y-48509500D01*
X74686338Y-48509500D01*
X74631023Y-48532413D01*
X73228288Y-49935148D01*
X73193640Y-49949500D01*
X72889300Y-49949500D01*
X72854652Y-49935148D01*
X72840300Y-49900500D01*
X72840606Y-49895033D01*
X72841378Y-49888148D01*
X72848900Y-49869991D01*
X72848900Y-49821157D01*
X72849206Y-49818432D01*
X72857046Y-49804233D01*
X72863252Y-49789251D01*
X72865931Y-49788141D01*
X72867334Y-49785601D01*
X72882918Y-49781104D01*
X72897900Y-49774899D01*
X73108295Y-49774899D01*
X73108298Y-49774899D01*
X73137613Y-49769069D01*
X73170857Y-49746857D01*
X73193069Y-49713613D01*
X73198900Y-49684299D01*
X73198899Y-49107034D01*
X73213250Y-49072388D01*
X74849787Y-47435852D01*
X74884435Y-47421500D01*
X75895864Y-47421500D01*
X75930512Y-47435852D01*
X75958421Y-47463761D01*
X75972773Y-47498409D01*
X75971832Y-47507967D01*
X75964500Y-47544834D01*
X75964500Y-47905162D01*
X75979324Y-47979691D01*
X75979325Y-47979694D01*
X76035793Y-48064206D01*
X76120306Y-48120674D01*
X76120309Y-48120676D01*
X76194833Y-48135500D01*
X76670166Y-48135499D01*
X76744691Y-48120676D01*
X76829206Y-48064206D01*
X76885676Y-47979691D01*
X76900500Y-47905167D01*
X76900499Y-47544834D01*
X76885676Y-47470309D01*
X76885674Y-47470307D01*
X76885674Y-47470305D01*
X76829206Y-47385793D01*
X76744690Y-47329323D01*
X76670170Y-47314500D01*
X76670167Y-47314500D01*
X76255136Y-47314500D01*
X76220488Y-47300148D01*
X76127487Y-47207147D01*
X76113135Y-47172499D01*
X76127487Y-47137851D01*
X76220487Y-47044851D01*
X76255135Y-47030499D01*
X76670163Y-47030499D01*
X76670166Y-47030499D01*
X76744691Y-47015676D01*
X76829206Y-46959206D01*
X76885676Y-46874691D01*
X76900500Y-46800167D01*
X76900499Y-46439834D01*
X76900498Y-46439829D01*
X77099500Y-46439829D01*
X77099500Y-46800162D01*
X77114324Y-46874691D01*
X77114325Y-46874694D01*
X77170793Y-46959206D01*
X77255306Y-47015674D01*
X77255309Y-47015676D01*
X77329833Y-47030500D01*
X77744863Y-47030499D01*
X77779511Y-47044851D01*
X77872512Y-47137852D01*
X77886864Y-47172500D01*
X77872512Y-47207148D01*
X77779511Y-47300148D01*
X77744863Y-47314500D01*
X77329837Y-47314500D01*
X77255308Y-47329324D01*
X77255305Y-47329325D01*
X77170793Y-47385793D01*
X77114323Y-47470309D01*
X77099500Y-47544829D01*
X77099500Y-47905162D01*
X77114324Y-47979691D01*
X77114325Y-47979694D01*
X77170793Y-48064206D01*
X77255306Y-48120674D01*
X77255309Y-48120676D01*
X77329833Y-48135500D01*
X77805166Y-48135499D01*
X77879691Y-48120676D01*
X77964206Y-48064206D01*
X78020676Y-47979691D01*
X78035500Y-47905167D01*
X78035499Y-47544834D01*
X78028166Y-47507967D01*
X78029145Y-47503045D01*
X78027225Y-47498409D01*
X78032694Y-47485206D01*
X78035483Y-47471187D01*
X78041578Y-47463761D01*
X78060489Y-47444851D01*
X78095136Y-47430500D01*
X82284864Y-47430500D01*
X82319512Y-47444852D01*
X88952248Y-54077587D01*
X88952253Y-54077589D01*
X88956344Y-54079284D01*
X88956345Y-54079284D01*
X89007564Y-54100500D01*
X89700701Y-54100500D01*
X89735349Y-54114852D01*
X89749701Y-54149500D01*
X89749701Y-54156513D01*
X89772270Y-54225964D01*
X89772271Y-54225965D01*
X89815202Y-54285041D01*
X89874289Y-54327956D01*
X89943747Y-54350508D01*
X89980261Y-54350500D01*
X89980433Y-54350500D01*
X89980523Y-54350509D01*
X89985907Y-54350507D01*
X89985910Y-54350509D01*
X89999939Y-54350505D01*
X89999989Y-54350525D01*
X90020261Y-54350520D01*
X90020261Y-54350521D01*
X90056765Y-54350512D01*
X90126197Y-54327936D01*
X90185256Y-54285013D01*
X90228164Y-54225942D01*
X90250721Y-54156505D01*
X90250721Y-54149500D01*
X90265073Y-54114852D01*
X90299721Y-54100500D01*
X120910366Y-54100500D01*
X120945014Y-54114852D01*
X134435148Y-67604985D01*
X134449500Y-67639633D01*
X134449500Y-68586100D01*
X134435148Y-68620748D01*
X134400500Y-68635100D01*
X133831105Y-68635100D01*
X133831104Y-68635100D01*
X133831102Y-68635101D01*
X133801787Y-68640931D01*
X133801786Y-68640931D01*
X133801784Y-68640932D01*
X133801783Y-68640932D01*
X133768543Y-68663142D01*
X133746330Y-68696386D01*
X133746330Y-68696387D01*
X133740500Y-68725695D01*
X133740500Y-68936100D01*
X133733781Y-68952319D01*
X133727932Y-68968867D01*
X133726699Y-68969416D01*
X133726148Y-68970748D01*
X133694091Y-68985031D01*
X133692788Y-68985100D01*
X133660991Y-68985100D01*
X133621009Y-68985100D01*
X133610486Y-68989458D01*
X133602091Y-68989903D01*
X133591735Y-68986242D01*
X133580749Y-68986242D01*
X133574741Y-68980235D01*
X133566733Y-68977404D01*
X133561998Y-68967492D01*
X133554230Y-68959724D01*
X133551333Y-68945164D01*
X133550569Y-68943563D01*
X133550854Y-68942754D01*
X133550500Y-68940972D01*
X133550500Y-67860066D01*
X133550499Y-67860062D01*
X133542543Y-67840856D01*
X133535046Y-67822756D01*
X133527588Y-67804749D01*
X132572585Y-66849746D01*
X120895254Y-55172413D01*
X120895252Y-55172412D01*
X120862848Y-55158990D01*
X120839936Y-55149500D01*
X91128342Y-55149500D01*
X91099025Y-55149500D01*
X91081815Y-55142371D01*
X91064535Y-55135306D01*
X91064488Y-55135194D01*
X91064377Y-55135148D01*
X91051830Y-55105052D01*
X91051072Y-55105212D01*
X91051047Y-55105093D01*
X91050781Y-55102535D01*
X91050026Y-55100723D01*
X91050025Y-55100500D01*
X91050025Y-55100064D01*
X91050022Y-55100059D01*
X91050001Y-55095242D01*
X91050020Y-55095195D01*
X91050000Y-55095008D01*
X91050001Y-55093500D01*
X91027447Y-55024070D01*
X90984545Y-54965006D01*
X90925495Y-54922086D01*
X90925492Y-54922084D01*
X90856070Y-54899509D01*
X90854387Y-54899509D01*
X90854387Y-54899508D01*
X90849477Y-54899506D01*
X90849461Y-54899500D01*
X90819573Y-54899500D01*
X90819572Y-54899500D01*
X90819543Y-54899499D01*
X90779819Y-54899488D01*
X90779712Y-54899500D01*
X90745092Y-54899500D01*
X90744928Y-54899515D01*
X90743063Y-54899514D01*
X90673607Y-54922062D01*
X90628310Y-54954959D01*
X90591841Y-54963707D01*
X90570707Y-54954948D01*
X90525495Y-54922086D01*
X90525492Y-54922084D01*
X90456070Y-54899509D01*
X90454387Y-54899509D01*
X90454387Y-54899508D01*
X90449477Y-54899506D01*
X90449461Y-54899500D01*
X90419573Y-54899500D01*
X90419572Y-54899500D01*
X90419543Y-54899499D01*
X90379819Y-54899488D01*
X90379712Y-54899500D01*
X90345092Y-54899500D01*
X90344928Y-54899515D01*
X90343063Y-54899514D01*
X90273607Y-54922062D01*
X90228310Y-54954959D01*
X90191841Y-54963707D01*
X90170707Y-54954948D01*
X90125495Y-54922086D01*
X90125492Y-54922084D01*
X90056070Y-54899509D01*
X90054387Y-54899509D01*
X90054387Y-54899508D01*
X90049477Y-54899506D01*
X90049461Y-54899500D01*
X90019573Y-54899500D01*
X90019572Y-54899500D01*
X90019543Y-54899499D01*
X89979819Y-54899488D01*
X89979712Y-54899500D01*
X89945092Y-54899500D01*
X89944928Y-54899515D01*
X89943063Y-54899514D01*
X89873607Y-54922062D01*
X89814526Y-54964969D01*
X89814519Y-54964976D01*
X89771597Y-55024038D01*
X89771593Y-55024046D01*
X89749026Y-55093487D01*
X89749026Y-55093491D01*
X89749025Y-55100067D01*
X89749025Y-55100500D01*
X89734673Y-55135148D01*
X89700025Y-55149500D01*
X89170133Y-55149500D01*
X89135485Y-55135148D01*
X82532752Y-48532413D01*
X82532750Y-48532412D01*
X82500346Y-48518990D01*
X82477434Y-48509500D01*
X81103335Y-48509500D01*
X81068687Y-48495148D01*
X81041577Y-48468038D01*
X81027225Y-48433390D01*
X81028167Y-48423830D01*
X81035499Y-48386970D01*
X81035500Y-48386967D01*
X81035499Y-48026634D01*
X81020676Y-47952109D01*
X81020674Y-47952107D01*
X81020674Y-47952105D01*
X80964206Y-47867593D01*
X80879690Y-47811123D01*
X80805168Y-47796300D01*
X80329837Y-47796300D01*
X80255308Y-47811124D01*
X80255305Y-47811125D01*
X80170793Y-47867593D01*
X80114323Y-47952109D01*
X80099500Y-48026629D01*
X80099500Y-48386962D01*
X80114324Y-48461491D01*
X80114325Y-48461494D01*
X80170793Y-48546006D01*
X80217797Y-48577412D01*
X80255309Y-48602476D01*
X80329833Y-48617300D01*
X80744863Y-48617299D01*
X80779511Y-48631651D01*
X80833783Y-48685923D01*
X80878812Y-48730951D01*
X80893164Y-48765599D01*
X80878812Y-48800247D01*
X80779511Y-48899548D01*
X80744863Y-48913900D01*
X80329837Y-48913900D01*
X80255308Y-48928724D01*
X80255305Y-48928725D01*
X80170793Y-48985193D01*
X80114323Y-49069709D01*
X80099500Y-49144229D01*
X80099500Y-49504562D01*
X80114324Y-49579091D01*
X80114325Y-49579094D01*
X80170793Y-49663606D01*
X80201771Y-49684304D01*
X80255309Y-49720076D01*
X80329833Y-49734900D01*
X80805166Y-49734899D01*
X80879691Y-49720076D01*
X80964206Y-49663606D01*
X81020676Y-49579091D01*
X81035500Y-49504567D01*
X81035499Y-49144234D01*
X81028166Y-49107367D01*
X81029145Y-49102444D01*
X81027225Y-49097808D01*
X81032694Y-49084604D01*
X81035483Y-49070585D01*
X81041571Y-49063167D01*
X81078888Y-49025850D01*
X81081299Y-49024852D01*
X81113535Y-49011500D01*
X82281608Y-49011500D01*
X82316256Y-49025852D01*
X88918992Y-55628587D01*
X88935190Y-55635295D01*
X88935193Y-55635298D01*
X88935194Y-55635297D01*
X88974308Y-55651500D01*
X120644108Y-55651500D01*
X120678756Y-55665852D01*
X133034148Y-68021243D01*
X133048500Y-68055891D01*
X133048500Y-70313197D01*
X133063952Y-70350496D01*
X133063953Y-70350499D01*
X133071410Y-70368503D01*
X133071411Y-70368505D01*
X133071413Y-70368509D01*
X133381492Y-70678587D01*
X133397690Y-70685295D01*
X133397693Y-70685298D01*
X133397694Y-70685297D01*
X133436808Y-70701500D01*
X133436809Y-70701500D01*
X134685934Y-70701500D01*
X134685936Y-70701500D01*
X134708848Y-70692009D01*
X134741252Y-70678588D01*
X134954987Y-70464850D01*
X134989635Y-70450499D01*
X135566895Y-70450499D01*
X135566898Y-70450499D01*
X135596213Y-70444669D01*
X135629457Y-70422457D01*
X135651669Y-70389213D01*
X135657500Y-70359899D01*
X135657500Y-70149500D01*
X135671852Y-70114852D01*
X135706500Y-70100500D01*
X135760989Y-70100500D01*
X135760991Y-70100500D01*
X135797929Y-70085200D01*
X135797931Y-70085198D01*
X135797932Y-70085198D01*
X135826198Y-70056932D01*
X135826198Y-70056931D01*
X135826200Y-70056929D01*
X135841500Y-70019991D01*
X135841500Y-69065609D01*
X135826200Y-69028671D01*
X135826198Y-69028669D01*
X135826198Y-69028668D01*
X135797932Y-69000402D01*
X135797930Y-69000401D01*
X135797929Y-69000400D01*
X135776292Y-68991437D01*
X135760992Y-68985100D01*
X135760991Y-68985100D01*
X135706499Y-68985100D01*
X135671851Y-68970748D01*
X135657499Y-68936100D01*
X135657499Y-68725705D01*
X135657499Y-68725702D01*
X135651669Y-68696387D01*
X135651667Y-68696384D01*
X135651667Y-68696383D01*
X135629457Y-68663143D01*
X135596212Y-68640930D01*
X135566904Y-68635100D01*
X135566899Y-68635100D01*
X134999500Y-68635100D01*
X134964852Y-68620748D01*
X134950500Y-68586100D01*
X134950500Y-67420064D01*
X134939043Y-67392407D01*
X134939042Y-67392404D01*
X134927588Y-67364749D01*
X134412585Y-66849746D01*
X121185254Y-53622413D01*
X121185252Y-53622412D01*
X121152848Y-53608990D01*
X121129936Y-53599500D01*
X89204391Y-53599500D01*
X89169743Y-53585148D01*
X82536010Y-46951413D01*
X82536008Y-46951412D01*
X82503604Y-46937990D01*
X82480692Y-46928500D01*
X78109136Y-46928500D01*
X78074488Y-46914148D01*
X78041577Y-46881237D01*
X78027225Y-46846589D01*
X78028167Y-46837028D01*
X78035499Y-46800170D01*
X78035500Y-46800167D01*
X78035499Y-46439834D01*
X78020676Y-46365309D01*
X78020674Y-46365307D01*
X78020674Y-46365305D01*
X77964206Y-46280793D01*
X77879690Y-46224323D01*
X77805168Y-46209500D01*
X77329837Y-46209500D01*
X77255308Y-46224324D01*
X77255305Y-46224325D01*
X77170793Y-46280793D01*
X77114323Y-46365309D01*
X77099500Y-46439829D01*
X76900498Y-46439829D01*
X76885676Y-46365309D01*
X76885674Y-46365307D01*
X76885674Y-46365305D01*
X76829206Y-46280793D01*
X76744690Y-46224323D01*
X76670168Y-46209500D01*
X76194837Y-46209500D01*
X76120308Y-46224324D01*
X76120305Y-46224325D01*
X76035793Y-46280793D01*
X75979323Y-46365309D01*
X75964500Y-46439829D01*
X75964500Y-46800164D01*
X75971833Y-46837030D01*
X75970853Y-46841951D01*
X75972774Y-46846587D01*
X75967304Y-46859793D01*
X75964515Y-46873812D01*
X75958423Y-46881236D01*
X75934512Y-46905148D01*
X75899864Y-46919500D01*
X75300333Y-46919500D01*
X75265685Y-46905148D01*
X75253193Y-46874990D01*
X75252368Y-46875163D01*
X75252335Y-46875005D01*
X75252048Y-46872227D01*
X75251333Y-46870500D01*
X75251333Y-46865288D01*
X75251300Y-46864976D01*
X75251301Y-46863502D01*
X75228750Y-46794077D01*
X75185854Y-46735014D01*
X75185851Y-46735011D01*
X75126809Y-46692094D01*
X75126810Y-46692094D01*
X75057393Y-46669514D01*
X75057389Y-46669513D01*
X75055564Y-46669513D01*
X75055564Y-46669512D01*
X75050794Y-46669510D01*
X75050769Y-46669500D01*
X75020897Y-46669500D01*
X75020895Y-46669500D01*
X74986545Y-46669486D01*
X74986544Y-46669486D01*
X74981098Y-46669484D01*
X74980957Y-46669500D01*
X74946275Y-46669500D01*
X74946071Y-46669519D01*
X74944385Y-46669518D01*
X74874926Y-46692062D01*
X74815839Y-46734969D01*
X74815836Y-46734972D01*
X74772906Y-46794038D01*
X74772905Y-46794040D01*
X74750334Y-46863485D01*
X74750334Y-46863488D01*
X74750333Y-46870067D01*
X74750333Y-46870500D01*
X74735981Y-46905148D01*
X74701333Y-46919500D01*
X74688608Y-46919500D01*
X74665695Y-46928990D01*
X74633292Y-46942412D01*
X74633290Y-46942413D01*
X74633289Y-46942413D01*
X73533756Y-48041948D01*
X73499108Y-48056300D01*
X73247899Y-48056300D01*
X73213251Y-48041948D01*
X73198899Y-48007300D01*
X73198899Y-47846905D01*
X73198899Y-47846902D01*
X73193069Y-47817587D01*
X73193067Y-47817584D01*
X73193067Y-47817583D01*
X73170857Y-47784343D01*
X73137612Y-47762130D01*
X73108304Y-47756300D01*
X73108299Y-47756300D01*
X72897900Y-47756300D01*
X72863252Y-47741948D01*
X72848900Y-47707300D01*
X72848900Y-47680011D01*
X72848899Y-47680007D01*
X72833600Y-47643071D01*
X72833598Y-47643069D01*
X72833598Y-47643068D01*
X72805332Y-47614802D01*
X72805330Y-47614801D01*
X72805329Y-47614800D01*
X72783692Y-47605837D01*
X72768392Y-47599500D01*
X72768391Y-47599500D01*
X71853991Y-47599500D01*
X71814009Y-47599500D01*
X71814007Y-47599500D01*
X71777069Y-47614801D01*
X71748801Y-47643069D01*
X71733500Y-47680007D01*
X71733500Y-47707300D01*
X71719148Y-47741948D01*
X71684500Y-47756300D01*
X71474105Y-47756300D01*
X71474104Y-47756300D01*
X71474102Y-47756301D01*
X71444787Y-47762131D01*
X71444786Y-47762131D01*
X71444784Y-47762132D01*
X71444783Y-47762132D01*
X71411543Y-47784342D01*
X71389330Y-47817586D01*
X71389330Y-47817587D01*
X71383500Y-47846895D01*
X71383500Y-48424163D01*
X71369148Y-48458811D01*
X71172411Y-48655548D01*
X71160254Y-48684899D01*
X71160246Y-48684920D01*
X71159831Y-48685923D01*
X71149500Y-48710864D01*
X70600500Y-48710864D01*
X70600500Y-46003213D01*
X70600919Y-45996817D01*
X70613271Y-45902995D01*
X70616581Y-45890643D01*
X70651556Y-45806204D01*
X70657947Y-45795136D01*
X70713589Y-45722621D01*
X70722621Y-45713589D01*
X70795136Y-45657947D01*
X70806204Y-45651556D01*
X70890643Y-45616581D01*
X70902992Y-45613271D01*
X70996817Y-45600918D01*
X71003213Y-45600500D01*
X71026929Y-45600500D01*
X82973071Y-45600500D01*
X82996787Y-45600500D01*
X83003182Y-45600918D01*
G37*
%TD.AperFunction*%
%TD*%
M02*
