%TF.GenerationSoftware,KiCad,Pcbnew,9.0.7*%
%TF.CreationDate,2026-02-14T16:58:03-06:00*%
%TF.ProjectId,Deswizzler-QSB,44657377-697a-47a6-9c65-722d5153422e,A1*%
%TF.SameCoordinates,Original*%
%TF.FileFunction,Copper,L2,Bot*%
%TF.FilePolarity,Positive*%
%FSLAX46Y46*%
G04 Gerber Fmt 4.6, Leading zero omitted, Abs format (unit mm)*
G04 Created by KiCad (PCBNEW 9.0.7) date 2026-02-14 16:58:03*
%MOMM*%
%LPD*%
G01*
G04 APERTURE LIST*
%TA.AperFunction,CastellatedPad*%
%ADD10R,0.700000X0.700000*%
%TD*%
%TA.AperFunction,CastellatedPad*%
%ADD11R,1.750000X1.750000*%
%TD*%
%TA.AperFunction,ViaPad*%
%ADD12C,0.400000*%
%TD*%
G04 APERTURE END LIST*
D10*
%TO.P,J2,1,1*%
%TO.N,/TX0_DN*%
X71834000Y-51381800D03*
%TD*%
%TO.P,J13,1,1*%
%TO.N,/RX0_DP_C*%
X134191000Y-70000000D03*
%TD*%
%TO.P,J4,1,1*%
%TO.N,/TX1_DN*%
X71834000Y-48206800D03*
%TD*%
%TO.P,J15,1,1*%
%TO.N,/RX1_DP_C*%
X130000000Y-70000000D03*
%TD*%
%TO.P,J12,1,1*%
%TO.N,/TX1_DN_C*%
X135207000Y-69085600D03*
%TD*%
%TO.P,J11,1,1*%
%TO.N,/TX1_DP_C*%
X134191000Y-69085600D03*
%TD*%
%TO.P,J6,1,1*%
%TO.N,/RX0_DN*%
X72748400Y-48206800D03*
%TD*%
%TO.P,J5,1,1*%
%TO.N,/RX0_DP*%
X72748400Y-49324400D03*
%TD*%
%TO.P,J1,1,1*%
%TO.N,/TX0_DP*%
X71834000Y-52499400D03*
%TD*%
%TO.P,J7,1,1*%
%TO.N,/RX1_DP*%
X72748400Y-52499400D03*
%TD*%
%TO.P,J3,1,1*%
%TO.N,/TX1_DP*%
X71834000Y-49324400D03*
%TD*%
%TO.P,J16,1,1*%
%TO.N,/RX1_DN_C*%
X131016000Y-70000000D03*
%TD*%
%TO.P,J14,1,1*%
%TO.N,/RX0_DN_C*%
X135207000Y-70000000D03*
%TD*%
%TO.P,J9,1,1*%
%TO.N,/TX0_DP_C*%
X130000000Y-69085600D03*
%TD*%
%TO.P,J8,1,1*%
%TO.N,/RX1_DN*%
X72748400Y-51381800D03*
%TD*%
%TO.P,J10,1,1*%
%TO.N,/TX0_DN_C*%
X131016000Y-69085600D03*
%TD*%
D11*
%TO.P,J17,1,1*%
%TO.N,GND*%
X85931000Y-61668800D03*
%TD*%
D12*
%TO.N,GND*%
X75500000Y-51150000D03*
X75500000Y-46400000D03*
X78500000Y-51150000D03*
X133600000Y-67300000D03*
X75500000Y-49550000D03*
X119900000Y-56200000D03*
X129800000Y-67300000D03*
X119900000Y-53100000D03*
X81500000Y-52750000D03*
X89400000Y-54600000D03*
X78500000Y-52750000D03*
X78500000Y-46400000D03*
X88250000Y-58625000D03*
X135300000Y-67300000D03*
X78500000Y-49550000D03*
X132350000Y-70650000D03*
X119900000Y-59025000D03*
X128175000Y-67300000D03*
X89400000Y-56200000D03*
X81500000Y-49550000D03*
X119900000Y-54600000D03*
X89400000Y-57700000D03*
X89400000Y-53100000D03*
X81500000Y-47950000D03*
X131425000Y-67300000D03*
X75500000Y-52750000D03*
X81500000Y-51150000D03*
X78500000Y-47950000D03*
X71025000Y-50550000D03*
X75500000Y-47950000D03*
X119900000Y-57700000D03*
X81500000Y-46400000D03*
%TD*%
%TA.AperFunction,Conductor*%
%TO.N,GND*%
G36*
X83003182Y-45600918D02*
G01*
X83071123Y-45609863D01*
X83083476Y-45613173D01*
X83143787Y-45638155D01*
X83154865Y-45644551D01*
X83209118Y-45686181D01*
X83214126Y-45690597D01*
X85317513Y-47817583D01*
X89355109Y-51900479D01*
X89356110Y-51901789D01*
X89382965Y-51928649D01*
X89383149Y-51928832D01*
X89392597Y-51938387D01*
X89392838Y-51938488D01*
X89396324Y-51941962D01*
X89396330Y-51941977D01*
X89396384Y-51942021D01*
X89420771Y-51966412D01*
X89519116Y-52032135D01*
X89628392Y-52077409D01*
X89744401Y-52100495D01*
X89744410Y-52100495D01*
X89783604Y-52100498D01*
X89783609Y-52100500D01*
X89803544Y-52100500D01*
X89830472Y-52100502D01*
X89830472Y-52100501D01*
X89837714Y-52100502D01*
X89837735Y-52100500D01*
X120473071Y-52100500D01*
X120496787Y-52100500D01*
X120503182Y-52100918D01*
X120597005Y-52113271D01*
X120609358Y-52116581D01*
X120693791Y-52151555D01*
X120704868Y-52157950D01*
X120779939Y-52215554D01*
X120784758Y-52219780D01*
X136180213Y-67615236D01*
X136184439Y-67620055D01*
X136242047Y-67695131D01*
X136248443Y-67706209D01*
X136283416Y-67790642D01*
X136286727Y-67802997D01*
X136299081Y-67896826D01*
X136299500Y-67903222D01*
X136299500Y-70996786D01*
X136299081Y-71003182D01*
X136286728Y-71097004D01*
X136283417Y-71109359D01*
X136248445Y-71193790D01*
X136242049Y-71204868D01*
X136186416Y-71277371D01*
X136177371Y-71286416D01*
X136104868Y-71342049D01*
X136093790Y-71348445D01*
X136009359Y-71383417D01*
X135997004Y-71386728D01*
X135903183Y-71399081D01*
X135896787Y-71399500D01*
X129003213Y-71399500D01*
X128996817Y-71399081D01*
X128902995Y-71386728D01*
X128890640Y-71383417D01*
X128806209Y-71348445D01*
X128795131Y-71342049D01*
X128768360Y-71321507D01*
X128722625Y-71286413D01*
X128713586Y-71277374D01*
X128657949Y-71204867D01*
X128651554Y-71193790D01*
X128616582Y-71109359D01*
X128613271Y-71097004D01*
X128600919Y-71003182D01*
X128600500Y-70996786D01*
X128600500Y-69065607D01*
X129349500Y-69065607D01*
X129349500Y-69065609D01*
X129349500Y-70019991D01*
X129364800Y-70056929D01*
X129364801Y-70056930D01*
X129364802Y-70056932D01*
X129393068Y-70085198D01*
X129393069Y-70085198D01*
X129393071Y-70085200D01*
X129430009Y-70100500D01*
X129469991Y-70100500D01*
X129500501Y-70100500D01*
X129535149Y-70114852D01*
X129549501Y-70149500D01*
X129549501Y-70359898D01*
X129555331Y-70389213D01*
X129555331Y-70389214D01*
X129555332Y-70389215D01*
X129555332Y-70389216D01*
X129577542Y-70422456D01*
X129577543Y-70422457D01*
X129610787Y-70444669D01*
X129640101Y-70450500D01*
X130359898Y-70450499D01*
X130389213Y-70444669D01*
X130422457Y-70422457D01*
X130444669Y-70389213D01*
X130450500Y-70359899D01*
X130450500Y-70149500D01*
X130464852Y-70114852D01*
X130499500Y-70100500D01*
X130516501Y-70100500D01*
X130551149Y-70114852D01*
X130565501Y-70149500D01*
X130565501Y-70359898D01*
X130571331Y-70389213D01*
X130571331Y-70389214D01*
X130571332Y-70389215D01*
X130571332Y-70389216D01*
X130593542Y-70422456D01*
X130593543Y-70422457D01*
X130626787Y-70444669D01*
X130656101Y-70450500D01*
X131375898Y-70450499D01*
X131405213Y-70444669D01*
X131438457Y-70422457D01*
X131460669Y-70389213D01*
X131466500Y-70359899D01*
X131466500Y-70149500D01*
X131480852Y-70114852D01*
X131515500Y-70100500D01*
X131569989Y-70100500D01*
X131569991Y-70100500D01*
X131606929Y-70085200D01*
X131606931Y-70085198D01*
X131606932Y-70085198D01*
X131635198Y-70056932D01*
X131635198Y-70056931D01*
X131635200Y-70056929D01*
X131650500Y-70019991D01*
X131650500Y-69065609D01*
X131650499Y-69065607D01*
X133540500Y-69065607D01*
X133540500Y-69065609D01*
X133540500Y-70019991D01*
X133555800Y-70056929D01*
X133555801Y-70056930D01*
X133555802Y-70056932D01*
X133584068Y-70085198D01*
X133584069Y-70085198D01*
X133584071Y-70085200D01*
X133621009Y-70100500D01*
X133660991Y-70100500D01*
X133691501Y-70100500D01*
X133726149Y-70114852D01*
X133740501Y-70149500D01*
X133740501Y-70359898D01*
X133746331Y-70389213D01*
X133746331Y-70389214D01*
X133746332Y-70389215D01*
X133746332Y-70389216D01*
X133768542Y-70422456D01*
X133768543Y-70422457D01*
X133801787Y-70444669D01*
X133831101Y-70450500D01*
X134550898Y-70450499D01*
X134580213Y-70444669D01*
X134613457Y-70422457D01*
X134635669Y-70389213D01*
X134641500Y-70359899D01*
X134641500Y-70149500D01*
X134655852Y-70114852D01*
X134690500Y-70100500D01*
X134707501Y-70100500D01*
X134742149Y-70114852D01*
X134756501Y-70149500D01*
X134756501Y-70359898D01*
X134762331Y-70389213D01*
X134762331Y-70389214D01*
X134762332Y-70389215D01*
X134762332Y-70389216D01*
X134784542Y-70422456D01*
X134784543Y-70422457D01*
X134817787Y-70444669D01*
X134847101Y-70450500D01*
X135566898Y-70450499D01*
X135596213Y-70444669D01*
X135629457Y-70422457D01*
X135651669Y-70389213D01*
X135657500Y-70359899D01*
X135657500Y-70149500D01*
X135671852Y-70114852D01*
X135706500Y-70100500D01*
X135760989Y-70100500D01*
X135760991Y-70100500D01*
X135797929Y-70085200D01*
X135797931Y-70085198D01*
X135797932Y-70085198D01*
X135826198Y-70056932D01*
X135826198Y-70056931D01*
X135826200Y-70056929D01*
X135841500Y-70019991D01*
X135841500Y-69065609D01*
X135826200Y-69028671D01*
X135826198Y-69028669D01*
X135826198Y-69028668D01*
X135797932Y-69000402D01*
X135797930Y-69000401D01*
X135797929Y-69000400D01*
X135776292Y-68991437D01*
X135760992Y-68985100D01*
X135760991Y-68985100D01*
X135706499Y-68985100D01*
X135671851Y-68970748D01*
X135657499Y-68936100D01*
X135657499Y-68725705D01*
X135657499Y-68725702D01*
X135651669Y-68696387D01*
X135651667Y-68696384D01*
X135651667Y-68696383D01*
X135629457Y-68663143D01*
X135596212Y-68640930D01*
X135566901Y-68635100D01*
X134847105Y-68635100D01*
X134847104Y-68635100D01*
X134847102Y-68635101D01*
X134817787Y-68640931D01*
X134817786Y-68640931D01*
X134817784Y-68640932D01*
X134817783Y-68640932D01*
X134784543Y-68663142D01*
X134762330Y-68696386D01*
X134762330Y-68696387D01*
X134756500Y-68725695D01*
X134756500Y-68936100D01*
X134742148Y-68970748D01*
X134707500Y-68985100D01*
X134690499Y-68985100D01*
X134655851Y-68970748D01*
X134641499Y-68936100D01*
X134641499Y-68725705D01*
X134641499Y-68725702D01*
X134635669Y-68696387D01*
X134635667Y-68696384D01*
X134635667Y-68696383D01*
X134613457Y-68663143D01*
X134580212Y-68640930D01*
X134550901Y-68635100D01*
X133831105Y-68635100D01*
X133831104Y-68635100D01*
X133831102Y-68635101D01*
X133801787Y-68640931D01*
X133801786Y-68640931D01*
X133801784Y-68640932D01*
X133801783Y-68640932D01*
X133768543Y-68663142D01*
X133746330Y-68696386D01*
X133746330Y-68696387D01*
X133740500Y-68725695D01*
X133740500Y-68936100D01*
X133726148Y-68970748D01*
X133691500Y-68985100D01*
X133621007Y-68985100D01*
X133584069Y-69000401D01*
X133555801Y-69028669D01*
X133540500Y-69065607D01*
X131650499Y-69065607D01*
X131635200Y-69028671D01*
X131635198Y-69028669D01*
X131635198Y-69028668D01*
X131606932Y-69000402D01*
X131606930Y-69000401D01*
X131606929Y-69000400D01*
X131585292Y-68991437D01*
X131569992Y-68985100D01*
X131569991Y-68985100D01*
X131515499Y-68985100D01*
X131480851Y-68970748D01*
X131466499Y-68936100D01*
X131466499Y-68725705D01*
X131466499Y-68725702D01*
X131460669Y-68696387D01*
X131460667Y-68696384D01*
X131460667Y-68696383D01*
X131438457Y-68663143D01*
X131405212Y-68640930D01*
X131375901Y-68635100D01*
X130656105Y-68635100D01*
X130656104Y-68635100D01*
X130656102Y-68635101D01*
X130626787Y-68640931D01*
X130626786Y-68640931D01*
X130626784Y-68640932D01*
X130626783Y-68640932D01*
X130593543Y-68663142D01*
X130571330Y-68696386D01*
X130571330Y-68696387D01*
X130565500Y-68725695D01*
X130565500Y-68936100D01*
X130551148Y-68970748D01*
X130516500Y-68985100D01*
X130499499Y-68985100D01*
X130464851Y-68970748D01*
X130450499Y-68936100D01*
X130450499Y-68725705D01*
X130450499Y-68725702D01*
X130444669Y-68696387D01*
X130444667Y-68696384D01*
X130444667Y-68696383D01*
X130422457Y-68663143D01*
X130389212Y-68640930D01*
X130359901Y-68635100D01*
X129640105Y-68635100D01*
X129640104Y-68635100D01*
X129640102Y-68635101D01*
X129610787Y-68640931D01*
X129610786Y-68640931D01*
X129610784Y-68640932D01*
X129610783Y-68640932D01*
X129577543Y-68663142D01*
X129555330Y-68696386D01*
X129555330Y-68696387D01*
X129549500Y-68725695D01*
X129549500Y-68936100D01*
X129535148Y-68970748D01*
X129500500Y-68985100D01*
X129430007Y-68985100D01*
X129393069Y-69000401D01*
X129364801Y-69028669D01*
X129349500Y-69065607D01*
X128600500Y-69065607D01*
X128600500Y-68376066D01*
X128600499Y-68376052D01*
X128600499Y-68340859D01*
X128600499Y-68340856D01*
X128577423Y-68224841D01*
X128532966Y-68117512D01*
X128532157Y-68115559D01*
X128466440Y-68017206D01*
X128424616Y-67975382D01*
X128405576Y-67956341D01*
X128405574Y-67956340D01*
X119538970Y-59089736D01*
X119538968Y-59089732D01*
X119482794Y-59033558D01*
X119384441Y-58967841D01*
X119275160Y-58922576D01*
X119159144Y-58899500D01*
X119119991Y-58899500D01*
X87926929Y-58899500D01*
X87900000Y-58899500D01*
X87832340Y-58899500D01*
X87832335Y-58899500D01*
X87700419Y-58929608D01*
X87700410Y-58929612D01*
X87578492Y-58988325D01*
X87472695Y-59072695D01*
X87388325Y-59178492D01*
X87329612Y-59300410D01*
X87329608Y-59300419D01*
X87299500Y-59432335D01*
X87299500Y-61165586D01*
X87299081Y-61171982D01*
X87286728Y-61265804D01*
X87283417Y-61278159D01*
X87248445Y-61362590D01*
X87242049Y-61373668D01*
X87186416Y-61446171D01*
X87177371Y-61455216D01*
X87104868Y-61510849D01*
X87093790Y-61517245D01*
X87073751Y-61525545D01*
X87036248Y-61525545D01*
X87009730Y-61499026D01*
X87006000Y-61480275D01*
X87006000Y-60774105D01*
X86994395Y-60715763D01*
X86950192Y-60649607D01*
X86884036Y-60605404D01*
X86825695Y-60593800D01*
X86431000Y-60593800D01*
X86431000Y-61519300D01*
X86417385Y-61552166D01*
X86396925Y-61475807D01*
X86331099Y-61361793D01*
X86238007Y-61268701D01*
X86123993Y-61202875D01*
X85996826Y-61168800D01*
X85865174Y-61168800D01*
X85738007Y-61202875D01*
X85623993Y-61268701D01*
X85530901Y-61361793D01*
X85465075Y-61475807D01*
X85444614Y-61552166D01*
X85431000Y-61519300D01*
X85431000Y-60593800D01*
X85036305Y-60593800D01*
X84977963Y-60605404D01*
X84911807Y-60649607D01*
X84867604Y-60715763D01*
X84856000Y-60774105D01*
X84856000Y-61519300D01*
X84841648Y-61553948D01*
X84807000Y-61568300D01*
X84803213Y-61568300D01*
X84796817Y-61567881D01*
X84702995Y-61555528D01*
X84690640Y-61552217D01*
X84606209Y-61517245D01*
X84595131Y-61510849D01*
X84549463Y-61475807D01*
X84522625Y-61455213D01*
X84513586Y-61446174D01*
X84457949Y-61373667D01*
X84451554Y-61362590D01*
X84416582Y-61278159D01*
X84413271Y-61265804D01*
X84400919Y-61171982D01*
X84400500Y-61165586D01*
X84400500Y-57776066D01*
X84400499Y-57776052D01*
X84400499Y-57740859D01*
X84400499Y-57740856D01*
X84377423Y-57624841D01*
X84332966Y-57517512D01*
X84332157Y-57515559D01*
X84266440Y-57417206D01*
X84224616Y-57375382D01*
X84205576Y-57356341D01*
X84205574Y-57356340D01*
X80938970Y-54089736D01*
X80938968Y-54089732D01*
X80882794Y-54033558D01*
X80784441Y-53967841D01*
X80675160Y-53922576D01*
X80559144Y-53899500D01*
X80559141Y-53899500D01*
X71003213Y-53899500D01*
X70996817Y-53899081D01*
X70902995Y-53886728D01*
X70890640Y-53883417D01*
X70806209Y-53848445D01*
X70795131Y-53842049D01*
X70768360Y-53821507D01*
X70722625Y-53786413D01*
X70713586Y-53777374D01*
X70657949Y-53704867D01*
X70651554Y-53693790D01*
X70616582Y-53609359D01*
X70613271Y-53597004D01*
X70600919Y-53503182D01*
X70600500Y-53496786D01*
X70600500Y-51021895D01*
X71383500Y-51021895D01*
X71383500Y-51741694D01*
X71383501Y-51741698D01*
X71389331Y-51771013D01*
X71389331Y-51771014D01*
X71389332Y-51771015D01*
X71389332Y-51771016D01*
X71396991Y-51782478D01*
X71411543Y-51804257D01*
X71444787Y-51826469D01*
X71474101Y-51832300D01*
X71684500Y-51832299D01*
X71719148Y-51846651D01*
X71733500Y-51881299D01*
X71733500Y-51999900D01*
X71719148Y-52034548D01*
X71684500Y-52048900D01*
X71474105Y-52048900D01*
X71474104Y-52048900D01*
X71474102Y-52048901D01*
X71444787Y-52054731D01*
X71444786Y-52054731D01*
X71444784Y-52054732D01*
X71444783Y-52054732D01*
X71411543Y-52076942D01*
X71389330Y-52110186D01*
X71389330Y-52110187D01*
X71383500Y-52139495D01*
X71383500Y-52859294D01*
X71383501Y-52859298D01*
X71389331Y-52888613D01*
X71389331Y-52888614D01*
X71389332Y-52888615D01*
X71389332Y-52888616D01*
X71411542Y-52921856D01*
X71411543Y-52921857D01*
X71444787Y-52944069D01*
X71474101Y-52949900D01*
X71684500Y-52949899D01*
X71719148Y-52964251D01*
X71733500Y-52998899D01*
X71733500Y-53005009D01*
X71733500Y-53044991D01*
X71748800Y-53081929D01*
X71748801Y-53081930D01*
X71748802Y-53081932D01*
X71777068Y-53110198D01*
X71777069Y-53110198D01*
X71777071Y-53110200D01*
X71814009Y-53125500D01*
X71814011Y-53125500D01*
X72768389Y-53125500D01*
X72768391Y-53125500D01*
X72805329Y-53110200D01*
X72805331Y-53110198D01*
X72805332Y-53110198D01*
X72833598Y-53081932D01*
X72833598Y-53081931D01*
X72833600Y-53081929D01*
X72848900Y-53044991D01*
X72848900Y-52998899D01*
X72863252Y-52964251D01*
X72897900Y-52949899D01*
X73108295Y-52949899D01*
X73108298Y-52949899D01*
X73137613Y-52944069D01*
X73170857Y-52921857D01*
X73193069Y-52888613D01*
X73198900Y-52859299D01*
X73198899Y-52139502D01*
X73193069Y-52110187D01*
X73193067Y-52110184D01*
X73193067Y-52110183D01*
X73170857Y-52076943D01*
X73137612Y-52054730D01*
X73108304Y-52048900D01*
X73108299Y-52048900D01*
X72897900Y-52048900D01*
X72863252Y-52034548D01*
X72848900Y-51999900D01*
X72848900Y-51881299D01*
X72863252Y-51846651D01*
X72897900Y-51832299D01*
X73108295Y-51832299D01*
X73108298Y-51832299D01*
X73137613Y-51826469D01*
X73170857Y-51804257D01*
X73193069Y-51771013D01*
X73198900Y-51741699D01*
X73198899Y-51021902D01*
X73193069Y-50992587D01*
X73193067Y-50992584D01*
X73193067Y-50992583D01*
X73170857Y-50959343D01*
X73137612Y-50937130D01*
X73108304Y-50931300D01*
X73108299Y-50931300D01*
X72897900Y-50931300D01*
X72863252Y-50916948D01*
X72848900Y-50882300D01*
X72848900Y-50855011D01*
X72848899Y-50855007D01*
X72833600Y-50818071D01*
X72833598Y-50818069D01*
X72833598Y-50818068D01*
X72805332Y-50789802D01*
X72805330Y-50789801D01*
X72805329Y-50789800D01*
X72783692Y-50780837D01*
X72768392Y-50774500D01*
X72768391Y-50774500D01*
X71853991Y-50774500D01*
X71814009Y-50774500D01*
X71814007Y-50774500D01*
X71777069Y-50789801D01*
X71748801Y-50818069D01*
X71733500Y-50855007D01*
X71733500Y-50882300D01*
X71719148Y-50916948D01*
X71684500Y-50931300D01*
X71474105Y-50931300D01*
X71474104Y-50931300D01*
X71474102Y-50931301D01*
X71444787Y-50937131D01*
X71444786Y-50937131D01*
X71444784Y-50937132D01*
X71444783Y-50937132D01*
X71411543Y-50959342D01*
X71389330Y-50992586D01*
X71389330Y-50992587D01*
X71383500Y-51021895D01*
X70600500Y-51021895D01*
X70600500Y-47846895D01*
X71383500Y-47846895D01*
X71383500Y-48566694D01*
X71383501Y-48566698D01*
X71389331Y-48596013D01*
X71389331Y-48596014D01*
X71389332Y-48596015D01*
X71389332Y-48596016D01*
X71411542Y-48629256D01*
X71411543Y-48629257D01*
X71444787Y-48651469D01*
X71474101Y-48657300D01*
X71684500Y-48657299D01*
X71719148Y-48671651D01*
X71733500Y-48706299D01*
X71733500Y-48824900D01*
X71719148Y-48859548D01*
X71684500Y-48873900D01*
X71474105Y-48873900D01*
X71474104Y-48873900D01*
X71474102Y-48873901D01*
X71444787Y-48879731D01*
X71444786Y-48879731D01*
X71444784Y-48879732D01*
X71444783Y-48879732D01*
X71411543Y-48901942D01*
X71389330Y-48935186D01*
X71389330Y-48935187D01*
X71383500Y-48964495D01*
X71383500Y-49684294D01*
X71383501Y-49684298D01*
X71389331Y-49713613D01*
X71389331Y-49713614D01*
X71389332Y-49713615D01*
X71389332Y-49713616D01*
X71411542Y-49746856D01*
X71411543Y-49746857D01*
X71444787Y-49769069D01*
X71474101Y-49774900D01*
X71684500Y-49774899D01*
X71719148Y-49789251D01*
X71733500Y-49823899D01*
X71733500Y-49869991D01*
X71748800Y-49906929D01*
X71748801Y-49906930D01*
X71748802Y-49906932D01*
X71777068Y-49935198D01*
X71777069Y-49935198D01*
X71777071Y-49935200D01*
X71814009Y-49950500D01*
X71814011Y-49950500D01*
X72768389Y-49950500D01*
X72768391Y-49950500D01*
X72805329Y-49935200D01*
X72805331Y-49935198D01*
X72805332Y-49935198D01*
X72833598Y-49906932D01*
X72833598Y-49906931D01*
X72833600Y-49906929D01*
X72848900Y-49869991D01*
X72848900Y-49823899D01*
X72863252Y-49789251D01*
X72897900Y-49774899D01*
X73108295Y-49774899D01*
X73108298Y-49774899D01*
X73137613Y-49769069D01*
X73170857Y-49746857D01*
X73193069Y-49713613D01*
X73198900Y-49684299D01*
X73198899Y-48964502D01*
X73193069Y-48935187D01*
X73193067Y-48935184D01*
X73193067Y-48935183D01*
X73170857Y-48901943D01*
X73137612Y-48879730D01*
X73108304Y-48873900D01*
X73108299Y-48873900D01*
X72897900Y-48873900D01*
X72863252Y-48859548D01*
X72848900Y-48824900D01*
X72848900Y-48706299D01*
X72863252Y-48671651D01*
X72897900Y-48657299D01*
X73108295Y-48657299D01*
X73108298Y-48657299D01*
X73137613Y-48651469D01*
X73170857Y-48629257D01*
X73193069Y-48596013D01*
X73198900Y-48566699D01*
X73198899Y-47846902D01*
X73193069Y-47817587D01*
X73193067Y-47817584D01*
X73193067Y-47817583D01*
X73170857Y-47784343D01*
X73137612Y-47762130D01*
X73108304Y-47756300D01*
X73108299Y-47756300D01*
X72897900Y-47756300D01*
X72863252Y-47741948D01*
X72848900Y-47707300D01*
X72848900Y-47680011D01*
X72848899Y-47680007D01*
X72833600Y-47643071D01*
X72833598Y-47643069D01*
X72833598Y-47643068D01*
X72805332Y-47614802D01*
X72805330Y-47614801D01*
X72805329Y-47614800D01*
X72783692Y-47605837D01*
X72768392Y-47599500D01*
X72768391Y-47599500D01*
X71853991Y-47599500D01*
X71814009Y-47599500D01*
X71814007Y-47599500D01*
X71777069Y-47614801D01*
X71748801Y-47643069D01*
X71733500Y-47680007D01*
X71733500Y-47707300D01*
X71719148Y-47741948D01*
X71684500Y-47756300D01*
X71474105Y-47756300D01*
X71474104Y-47756300D01*
X71474102Y-47756301D01*
X71444787Y-47762131D01*
X71444786Y-47762131D01*
X71444784Y-47762132D01*
X71444783Y-47762132D01*
X71411543Y-47784342D01*
X71389330Y-47817586D01*
X71389330Y-47817587D01*
X71383500Y-47846895D01*
X70600500Y-47846895D01*
X70600500Y-46003213D01*
X70600919Y-45996817D01*
X70613271Y-45902995D01*
X70616581Y-45890643D01*
X70651556Y-45806204D01*
X70657947Y-45795136D01*
X70713589Y-45722621D01*
X70722621Y-45713589D01*
X70795136Y-45657947D01*
X70806204Y-45651556D01*
X70890643Y-45616581D01*
X70902992Y-45613271D01*
X70996817Y-45600918D01*
X71003213Y-45600500D01*
X71026929Y-45600500D01*
X82973071Y-45600500D01*
X82996787Y-45600500D01*
X83003182Y-45600918D01*
G37*
%TD.AperFunction*%
%TD*%
M02*
