%TF.GenerationSoftware,KiCad,Pcbnew,9.0.7*%
%TF.CreationDate,2026-02-14T16:58:03-06:00*%
%TF.ProjectId,Deswizzler-QSB,44657377-697a-47a6-9c65-722d5153422e,A1*%
%TF.SameCoordinates,Original*%
%TF.FileFunction,Legend,Bot*%
%TF.FilePolarity,Positive*%
%FSLAX46Y46*%
G04 Gerber Fmt 4.6, Leading zero omitted, Abs format (unit mm)*
G04 Created by KiCad (PCBNEW 9.0.7) date 2026-02-14 16:58:03*
%MOMM*%
%LPD*%
G01*
G04 APERTURE LIST*
%ADD10C,0.100000*%
G04 APERTURE END LIST*
D10*
X113340477Y-55433609D02*
X113673810Y-55433609D01*
X113673810Y-55957419D02*
X113673810Y-54957419D01*
X113673810Y-54957419D02*
X113197620Y-54957419D01*
X112673810Y-55957419D02*
X112769048Y-55909800D01*
X112769048Y-55909800D02*
X112816667Y-55862180D01*
X112816667Y-55862180D02*
X112864286Y-55766942D01*
X112864286Y-55766942D02*
X112864286Y-55481228D01*
X112864286Y-55481228D02*
X112816667Y-55385990D01*
X112816667Y-55385990D02*
X112769048Y-55338371D01*
X112769048Y-55338371D02*
X112673810Y-55290752D01*
X112673810Y-55290752D02*
X112530953Y-55290752D01*
X112530953Y-55290752D02*
X112435715Y-55338371D01*
X112435715Y-55338371D02*
X112388096Y-55385990D01*
X112388096Y-55385990D02*
X112340477Y-55481228D01*
X112340477Y-55481228D02*
X112340477Y-55766942D01*
X112340477Y-55766942D02*
X112388096Y-55862180D01*
X112388096Y-55862180D02*
X112435715Y-55909800D01*
X112435715Y-55909800D02*
X112530953Y-55957419D01*
X112530953Y-55957419D02*
X112673810Y-55957419D01*
X111911905Y-55957419D02*
X111911905Y-55290752D01*
X111911905Y-55481228D02*
X111864286Y-55385990D01*
X111864286Y-55385990D02*
X111816667Y-55338371D01*
X111816667Y-55338371D02*
X111721429Y-55290752D01*
X111721429Y-55290752D02*
X111626191Y-55290752D01*
X110626190Y-54957419D02*
X109959524Y-55957419D01*
X109959524Y-54957419D02*
X110626190Y-55957419D01*
X109197619Y-55909800D02*
X109292857Y-55957419D01*
X109292857Y-55957419D02*
X109483333Y-55957419D01*
X109483333Y-55957419D02*
X109578571Y-55909800D01*
X109578571Y-55909800D02*
X109626190Y-55814561D01*
X109626190Y-55814561D02*
X109626190Y-55433609D01*
X109626190Y-55433609D02*
X109578571Y-55338371D01*
X109578571Y-55338371D02*
X109483333Y-55290752D01*
X109483333Y-55290752D02*
X109292857Y-55290752D01*
X109292857Y-55290752D02*
X109197619Y-55338371D01*
X109197619Y-55338371D02*
X109150000Y-55433609D01*
X109150000Y-55433609D02*
X109150000Y-55528847D01*
X109150000Y-55528847D02*
X109626190Y-55624085D01*
X108721428Y-55290752D02*
X108721428Y-55957419D01*
X108721428Y-55385990D02*
X108673809Y-55338371D01*
X108673809Y-55338371D02*
X108578571Y-55290752D01*
X108578571Y-55290752D02*
X108435714Y-55290752D01*
X108435714Y-55290752D02*
X108340476Y-55338371D01*
X108340476Y-55338371D02*
X108292857Y-55433609D01*
X108292857Y-55433609D02*
X108292857Y-55957419D01*
X107673809Y-55957419D02*
X107769047Y-55909800D01*
X107769047Y-55909800D02*
X107816666Y-55862180D01*
X107816666Y-55862180D02*
X107864285Y-55766942D01*
X107864285Y-55766942D02*
X107864285Y-55481228D01*
X107864285Y-55481228D02*
X107816666Y-55385990D01*
X107816666Y-55385990D02*
X107769047Y-55338371D01*
X107769047Y-55338371D02*
X107673809Y-55290752D01*
X107673809Y-55290752D02*
X107530952Y-55290752D01*
X107530952Y-55290752D02*
X107435714Y-55338371D01*
X107435714Y-55338371D02*
X107388095Y-55385990D01*
X107388095Y-55385990D02*
X107340476Y-55481228D01*
X107340476Y-55481228D02*
X107340476Y-55766942D01*
X107340476Y-55766942D02*
X107388095Y-55862180D01*
X107388095Y-55862180D02*
X107435714Y-55909800D01*
X107435714Y-55909800D02*
X107530952Y-55957419D01*
X107530952Y-55957419D02*
X107673809Y-55957419D01*
X106911904Y-55290752D02*
X106911904Y-55957419D01*
X106911904Y-55385990D02*
X106864285Y-55338371D01*
X106864285Y-55338371D02*
X106769047Y-55290752D01*
X106769047Y-55290752D02*
X106626190Y-55290752D01*
X106626190Y-55290752D02*
X106530952Y-55338371D01*
X106530952Y-55338371D02*
X106483333Y-55433609D01*
X106483333Y-55433609D02*
X106483333Y-55957419D01*
X104816666Y-55957419D02*
X104816666Y-55433609D01*
X104816666Y-55433609D02*
X104864285Y-55338371D01*
X104864285Y-55338371D02*
X104959523Y-55290752D01*
X104959523Y-55290752D02*
X105149999Y-55290752D01*
X105149999Y-55290752D02*
X105245237Y-55338371D01*
X104816666Y-55909800D02*
X104911904Y-55957419D01*
X104911904Y-55957419D02*
X105149999Y-55957419D01*
X105149999Y-55957419D02*
X105245237Y-55909800D01*
X105245237Y-55909800D02*
X105292856Y-55814561D01*
X105292856Y-55814561D02*
X105292856Y-55719323D01*
X105292856Y-55719323D02*
X105245237Y-55624085D01*
X105245237Y-55624085D02*
X105149999Y-55576466D01*
X105149999Y-55576466D02*
X104911904Y-55576466D01*
X104911904Y-55576466D02*
X104816666Y-55528847D01*
X104340475Y-55290752D02*
X104340475Y-55957419D01*
X104340475Y-55385990D02*
X104292856Y-55338371D01*
X104292856Y-55338371D02*
X104197618Y-55290752D01*
X104197618Y-55290752D02*
X104054761Y-55290752D01*
X104054761Y-55290752D02*
X103959523Y-55338371D01*
X103959523Y-55338371D02*
X103911904Y-55433609D01*
X103911904Y-55433609D02*
X103911904Y-55957419D01*
X103007142Y-55957419D02*
X103007142Y-54957419D01*
X103007142Y-55909800D02*
X103102380Y-55957419D01*
X103102380Y-55957419D02*
X103292856Y-55957419D01*
X103292856Y-55957419D02*
X103388094Y-55909800D01*
X103388094Y-55909800D02*
X103435713Y-55862180D01*
X103435713Y-55862180D02*
X103483332Y-55766942D01*
X103483332Y-55766942D02*
X103483332Y-55481228D01*
X103483332Y-55481228D02*
X103435713Y-55385990D01*
X103435713Y-55385990D02*
X103388094Y-55338371D01*
X103388094Y-55338371D02*
X103292856Y-55290752D01*
X103292856Y-55290752D02*
X103102380Y-55290752D01*
X103102380Y-55290752D02*
X103007142Y-55338371D01*
X101864284Y-54957419D02*
X101197618Y-54957419D01*
X101197618Y-54957419D02*
X101864284Y-55957419D01*
X101864284Y-55957419D02*
X101197618Y-55957419D01*
X100435713Y-55909800D02*
X100530951Y-55957419D01*
X100530951Y-55957419D02*
X100721427Y-55957419D01*
X100721427Y-55957419D02*
X100816665Y-55909800D01*
X100816665Y-55909800D02*
X100864284Y-55814561D01*
X100864284Y-55814561D02*
X100864284Y-55433609D01*
X100864284Y-55433609D02*
X100816665Y-55338371D01*
X100816665Y-55338371D02*
X100721427Y-55290752D01*
X100721427Y-55290752D02*
X100530951Y-55290752D01*
X100530951Y-55290752D02*
X100435713Y-55338371D01*
X100435713Y-55338371D02*
X100388094Y-55433609D01*
X100388094Y-55433609D02*
X100388094Y-55528847D01*
X100388094Y-55528847D02*
X100864284Y-55624085D01*
X99959522Y-55290752D02*
X99959522Y-56290752D01*
X99959522Y-55338371D02*
X99864284Y-55290752D01*
X99864284Y-55290752D02*
X99673808Y-55290752D01*
X99673808Y-55290752D02*
X99578570Y-55338371D01*
X99578570Y-55338371D02*
X99530951Y-55385990D01*
X99530951Y-55385990D02*
X99483332Y-55481228D01*
X99483332Y-55481228D02*
X99483332Y-55766942D01*
X99483332Y-55766942D02*
X99530951Y-55862180D01*
X99530951Y-55862180D02*
X99578570Y-55909800D01*
X99578570Y-55909800D02*
X99673808Y-55957419D01*
X99673808Y-55957419D02*
X99864284Y-55957419D01*
X99864284Y-55957419D02*
X99959522Y-55909800D01*
X99054760Y-55957419D02*
X99054760Y-54957419D01*
X98626189Y-55957419D02*
X98626189Y-55433609D01*
X98626189Y-55433609D02*
X98673808Y-55338371D01*
X98673808Y-55338371D02*
X98769046Y-55290752D01*
X98769046Y-55290752D02*
X98911903Y-55290752D01*
X98911903Y-55290752D02*
X99007141Y-55338371D01*
X99007141Y-55338371D02*
X99054760Y-55385990D01*
X98245236Y-55290752D02*
X98007141Y-55957419D01*
X97769046Y-55290752D02*
X98007141Y-55957419D01*
X98007141Y-55957419D02*
X98102379Y-56195514D01*
X98102379Y-56195514D02*
X98149998Y-56243133D01*
X98149998Y-56243133D02*
X98245236Y-56290752D01*
X97388093Y-55957419D02*
X97388093Y-55290752D01*
X97388093Y-55481228D02*
X97340474Y-55385990D01*
X97340474Y-55385990D02*
X97292855Y-55338371D01*
X97292855Y-55338371D02*
X97197617Y-55290752D01*
X97197617Y-55290752D02*
X97102379Y-55290752D01*
X97007141Y-56052657D02*
X96245236Y-56052657D01*
X96054759Y-55671704D02*
X95578569Y-55671704D01*
X96149997Y-55957419D02*
X95816664Y-54957419D01*
X95816664Y-54957419D02*
X95483331Y-55957419D01*
M02*
