%TF.GenerationSoftware,KiCad,Pcbnew,9.0.7*%
%TF.CreationDate,2026-02-14T16:58:03-06:00*%
%TF.ProjectId,Deswizzler-QSB,44657377-697a-47a6-9c65-722d5153422e,A1*%
%TF.SameCoordinates,Original*%
%TF.FileFunction,Legend,Top*%
%TF.FilePolarity,Positive*%
%FSLAX46Y46*%
G04 Gerber Fmt 4.6, Leading zero omitted, Abs format (unit mm)*
G04 Created by KiCad (PCBNEW 9.0.7) date 2026-02-14 16:58:03*
%MOMM*%
%LPD*%
G01*
G04 APERTURE LIST*
%ADD10C,0.200000*%
%ADD11C,0.100000*%
%ADD12C,0.000000*%
%ADD13C,0.120000*%
G04 APERTURE END LIST*
D10*
G36*
X99456282Y-52448671D02*
G01*
X99525036Y-52465894D01*
X99589973Y-52494512D01*
X99634993Y-52523101D01*
X99674967Y-52557029D01*
X99710273Y-52596592D01*
X99741110Y-52642279D01*
X99765192Y-52691142D01*
X99782715Y-52744491D01*
X99793545Y-52802992D01*
X99797286Y-52867422D01*
X99793564Y-52931255D01*
X99782762Y-52989503D01*
X99765243Y-53042899D01*
X99741110Y-53092076D01*
X99710265Y-53138048D01*
X99674952Y-53177891D01*
X99634979Y-53212098D01*
X99589973Y-53240967D01*
X99525007Y-53269892D01*
X99456257Y-53287288D01*
X99382708Y-53293186D01*
X99309191Y-53287289D01*
X99240440Y-53269895D01*
X99175444Y-53240967D01*
X99130463Y-53212101D01*
X99090505Y-53177895D01*
X99055200Y-53138051D01*
X99024355Y-53092076D01*
X99000223Y-53042899D01*
X98982703Y-52989503D01*
X98971902Y-52931255D01*
X98968244Y-52868545D01*
X99104467Y-52868545D01*
X99108985Y-52932302D01*
X99121829Y-52987376D01*
X99142325Y-53035168D01*
X99170936Y-53078423D01*
X99204749Y-53113367D01*
X99244125Y-53140876D01*
X99287962Y-53160957D01*
X99333931Y-53172969D01*
X99382708Y-53177024D01*
X99432966Y-53172920D01*
X99479462Y-53160861D01*
X99522953Y-53140876D01*
X99561952Y-53113382D01*
X99595393Y-53078443D01*
X99623630Y-53035168D01*
X99643823Y-52987408D01*
X99656492Y-52932332D01*
X99660950Y-52868545D01*
X99656474Y-52804029D01*
X99643789Y-52748636D01*
X99623630Y-52700897D01*
X99595397Y-52657589D01*
X99562128Y-52622847D01*
X99523490Y-52595726D01*
X99480389Y-52576104D01*
X99433730Y-52564192D01*
X99382708Y-52560115D01*
X99331711Y-52564181D01*
X99284865Y-52576084D01*
X99241389Y-52595726D01*
X99202449Y-52622898D01*
X99169175Y-52657645D01*
X99141201Y-52700897D01*
X99121369Y-52748600D01*
X99108877Y-52803996D01*
X99104467Y-52868545D01*
X98968244Y-52868545D01*
X98968179Y-52867422D01*
X98971920Y-52802992D01*
X98982751Y-52744491D01*
X99000274Y-52691142D01*
X99024355Y-52642279D01*
X99055192Y-52596589D01*
X99090490Y-52557026D01*
X99130449Y-52523098D01*
X99175444Y-52494512D01*
X99240411Y-52465891D01*
X99309166Y-52448670D01*
X99382708Y-52442830D01*
X99456282Y-52448671D01*
G37*
G36*
X100167754Y-53293186D02*
G01*
X100117610Y-53289366D01*
X100071900Y-53278233D01*
X100029854Y-53259969D01*
X99991860Y-53234651D01*
X99959540Y-53202964D01*
X99932450Y-53164274D01*
X99912829Y-53121288D01*
X99900682Y-53072717D01*
X99896449Y-53017436D01*
X99900342Y-52965045D01*
X99911544Y-52918656D01*
X99929666Y-52877289D01*
X99954946Y-52840047D01*
X99985933Y-52809264D01*
X100023162Y-52784379D01*
X100064485Y-52766524D01*
X100110506Y-52755515D01*
X100162136Y-52751699D01*
X100219401Y-52755770D01*
X100265109Y-52766940D01*
X100305315Y-52784880D01*
X100334230Y-52805531D01*
X100278884Y-52905866D01*
X100244648Y-52878504D01*
X100209457Y-52862934D01*
X100172248Y-52857799D01*
X100126909Y-52863046D01*
X100091706Y-52877602D01*
X100064244Y-52900981D01*
X100044248Y-52931694D01*
X100031673Y-52969507D01*
X100027168Y-53016312D01*
X100031949Y-53069880D01*
X100045038Y-53111566D01*
X100065367Y-53143953D01*
X100093625Y-53168790D01*
X100128567Y-53183954D01*
X100172248Y-53189334D01*
X100206292Y-53186839D01*
X100239463Y-53179369D01*
X100270055Y-53167688D01*
X100291389Y-53154993D01*
X100336526Y-53242823D01*
X100307668Y-53260761D01*
X100266184Y-53277994D01*
X100220199Y-53289256D01*
X100167754Y-53293186D01*
G37*
G36*
X100492743Y-52866787D02*
G01*
X100402080Y-52866787D01*
X100402080Y-52765133D01*
X100492743Y-52765133D01*
X100492743Y-52556159D01*
X100617893Y-52528608D01*
X100617893Y-52765133D01*
X100736498Y-52765133D01*
X100736498Y-52866787D01*
X100617893Y-52866787D01*
X100617893Y-53282000D01*
X100492743Y-53282000D01*
X100492743Y-52866787D01*
G37*
G36*
X101099995Y-52755702D02*
G01*
X101140524Y-52767478D01*
X101177632Y-52785535D01*
X101207056Y-52806410D01*
X101230561Y-52829607D01*
X101240468Y-52845293D01*
X101242520Y-52765133D01*
X101360880Y-52765133D01*
X101360880Y-53282000D01*
X101243643Y-53282000D01*
X101241543Y-53196417D01*
X101228129Y-53217516D01*
X101206473Y-53239348D01*
X101174376Y-53262167D01*
X101139425Y-53279302D01*
X101101703Y-53289653D01*
X101060510Y-53293186D01*
X101014848Y-53289442D01*
X100972091Y-53278387D01*
X100931599Y-53259969D01*
X100894978Y-53234832D01*
X100863563Y-53203517D01*
X100836979Y-53165398D01*
X100817627Y-53123187D01*
X100805672Y-53075705D01*
X100801602Y-53023004D01*
X100932234Y-53023004D01*
X100936843Y-53071257D01*
X100949775Y-53110778D01*
X100970433Y-53143367D01*
X100998819Y-53168381D01*
X101034770Y-53183808D01*
X101080636Y-53189334D01*
X101120921Y-53184373D01*
X101155934Y-53169925D01*
X101186979Y-53145614D01*
X101210602Y-53114081D01*
X101225067Y-53076416D01*
X101230161Y-53030869D01*
X101230161Y-53023004D01*
X101225038Y-52977196D01*
X101210231Y-52937617D01*
X101186506Y-52903863D01*
X101155960Y-52878852D01*
X101120039Y-52863085D01*
X101080636Y-52857799D01*
X101035508Y-52863281D01*
X100999682Y-52878672D01*
X100970971Y-52903765D01*
X100949957Y-52936373D01*
X100936875Y-52975549D01*
X100932234Y-53023004D01*
X100801602Y-53023004D01*
X100801515Y-53021881D01*
X100805169Y-52968648D01*
X100815645Y-52921718D01*
X100832485Y-52880122D01*
X100856255Y-52842344D01*
X100885577Y-52811012D01*
X100920901Y-52785503D01*
X100960468Y-52767069D01*
X101005156Y-52755670D01*
X101056016Y-52751699D01*
X101099995Y-52755702D01*
G37*
G36*
X101530385Y-52456263D02*
G01*
X101653288Y-52456263D01*
X101653288Y-53282000D01*
X101530385Y-53282000D01*
X101530385Y-52456263D01*
G37*
G36*
X101817175Y-52334240D02*
G01*
X101939003Y-52334240D01*
X101905102Y-52672027D01*
X101791187Y-52672027D01*
X101817175Y-52334240D01*
G37*
G36*
X102154376Y-53293186D02*
G01*
X102100144Y-53289755D01*
X102042562Y-53279117D01*
X101989394Y-53262216D01*
X101958835Y-53245119D01*
X102000357Y-53147080D01*
X102047793Y-53173654D01*
X102098767Y-53189549D01*
X102154376Y-53194951D01*
X102196770Y-53190743D01*
X102221452Y-53180466D01*
X102234560Y-53165913D01*
X102238982Y-53146152D01*
X102234589Y-53126915D01*
X102221494Y-53112544D01*
X102200159Y-53100836D01*
X102158284Y-53083821D01*
X102115786Y-53068140D01*
X102071934Y-53047896D01*
X102036669Y-53026235D01*
X102008759Y-53003318D01*
X101987090Y-52975895D01*
X101973885Y-52943076D01*
X101969240Y-52903277D01*
X101972888Y-52868884D01*
X101983357Y-52839495D01*
X102000547Y-52814033D01*
X102025172Y-52791853D01*
X102064437Y-52770423D01*
X102113408Y-52756676D01*
X102174502Y-52751699D01*
X102220254Y-52754247D01*
X102265018Y-52761860D01*
X102306492Y-52774338D01*
X102334285Y-52788531D01*
X102289149Y-52888036D01*
X102270562Y-52874191D01*
X102241669Y-52861658D01*
X102208924Y-52853847D01*
X102171180Y-52851106D01*
X102132361Y-52855066D01*
X102109611Y-52864781D01*
X102097414Y-52878657D01*
X102093267Y-52897659D01*
X102098530Y-52920735D01*
X102114076Y-52937422D01*
X102138615Y-52950480D01*
X102182806Y-52967757D01*
X102217586Y-52980115D01*
X102264499Y-53001361D01*
X102299408Y-53022860D01*
X102324565Y-53044449D01*
X102343825Y-53070405D01*
X102355540Y-53100878D01*
X102359638Y-53137163D01*
X102355756Y-53174417D01*
X102344740Y-53205459D01*
X102326856Y-53231611D01*
X102301459Y-53253667D01*
X102260917Y-53274976D01*
X102212492Y-53288407D01*
X102154376Y-53293186D01*
G37*
G36*
X103149275Y-53293186D02*
G01*
X103088456Y-53289525D01*
X103032075Y-53278823D01*
X102979512Y-53261321D01*
X102930238Y-53237010D01*
X102884413Y-53206178D01*
X102844194Y-53170360D01*
X102809166Y-53129299D01*
X102779101Y-53082551D01*
X102755512Y-53032496D01*
X102738538Y-52979366D01*
X102728173Y-52922673D01*
X102724634Y-52861853D01*
X102728204Y-52802735D01*
X102738662Y-52747633D01*
X102755810Y-52695973D01*
X102779687Y-52647261D01*
X102809975Y-52602015D01*
X102845325Y-52562276D01*
X102886008Y-52527638D01*
X102932485Y-52497882D01*
X102982218Y-52474555D01*
X103035145Y-52457745D01*
X103091763Y-52447467D01*
X103152646Y-52443953D01*
X103217070Y-52447045D01*
X103272129Y-52455726D01*
X103322788Y-52469045D01*
X103359226Y-52482690D01*
X103390061Y-52498391D01*
X103406365Y-52510046D01*
X103355807Y-52618099D01*
X103319555Y-52594745D01*
X103274529Y-52576984D01*
X103218884Y-52565429D01*
X103150399Y-52561239D01*
X103092066Y-52565819D01*
X103040873Y-52578964D01*
X102995597Y-52600220D01*
X102955094Y-52629441D01*
X102921920Y-52664494D01*
X102895458Y-52705928D01*
X102876499Y-52751556D01*
X102864936Y-52801026D01*
X102860971Y-52855112D01*
X102865306Y-52916641D01*
X102877853Y-52972041D01*
X102898242Y-53022272D01*
X102926722Y-53068124D01*
X102961098Y-53105881D01*
X103001752Y-53136382D01*
X103047393Y-53158795D01*
X103096996Y-53172375D01*
X103151522Y-53177024D01*
X103203134Y-53173780D01*
X103251759Y-53164226D01*
X103296599Y-53147423D01*
X103332359Y-53124121D01*
X103332359Y-52967512D01*
X103163392Y-52967512D01*
X103163392Y-52849103D01*
X103459757Y-52849103D01*
X103459757Y-53173507D01*
X103429764Y-53204205D01*
X103389639Y-53232721D01*
X103337391Y-53258894D01*
X103282065Y-53277486D01*
X103219725Y-53289120D01*
X103149275Y-53293186D01*
G37*
G36*
X103858320Y-52461251D02*
G01*
X103920021Y-52474817D01*
X103968162Y-52495385D01*
X104005346Y-52522160D01*
X104036077Y-52557330D01*
X104058232Y-52598335D01*
X104072041Y-52646324D01*
X104076909Y-52702900D01*
X104071486Y-52768735D01*
X104056272Y-52823327D01*
X104032183Y-52868781D01*
X103999191Y-52906647D01*
X103958730Y-52935945D01*
X103908339Y-52958052D01*
X103845875Y-52972381D01*
X103768675Y-52977575D01*
X103726567Y-52977575D01*
X103726567Y-53282000D01*
X103596972Y-53282000D01*
X103596972Y-52863660D01*
X103726567Y-52863660D01*
X103771997Y-52863660D01*
X103822044Y-52860295D01*
X103859836Y-52851292D01*
X103887992Y-52837857D01*
X103908577Y-52820527D01*
X103930035Y-52789876D01*
X103942893Y-52755522D01*
X103947314Y-52716333D01*
X103942854Y-52674188D01*
X103930216Y-52639258D01*
X103909701Y-52609990D01*
X103889754Y-52593367D01*
X103863224Y-52580624D01*
X103828430Y-52572181D01*
X103783232Y-52569055D01*
X103726567Y-52569055D01*
X103726567Y-52863660D01*
X103596972Y-52863660D01*
X103596972Y-52456263D01*
X103779861Y-52456263D01*
X103858320Y-52461251D01*
G37*
G36*
X104474927Y-53293186D02*
G01*
X104411907Y-53288837D01*
X104359517Y-53276684D01*
X104315945Y-53257664D01*
X104279736Y-53232121D01*
X104249882Y-53199787D01*
X104221371Y-53152143D01*
X104199550Y-53092829D01*
X104185302Y-53019414D01*
X104180126Y-52929020D01*
X104180126Y-52456263D01*
X104308598Y-52456263D01*
X104308598Y-52931218D01*
X104311728Y-52999334D01*
X104320058Y-53051053D01*
X104332255Y-53089577D01*
X104347384Y-53117673D01*
X104368949Y-53141362D01*
X104396417Y-53158637D01*
X104431097Y-53169660D01*
X104474927Y-53173653D01*
X104518857Y-53169712D01*
X104553441Y-53158865D01*
X104580665Y-53141930D01*
X104601885Y-53118796D01*
X104616699Y-53091286D01*
X104628732Y-53052930D01*
X104637008Y-53000733D01*
X104640133Y-52931218D01*
X104640133Y-52456263D01*
X104769729Y-52456263D01*
X104769729Y-52929020D01*
X104764318Y-53018480D01*
X104749366Y-53091562D01*
X104726336Y-53151045D01*
X104696016Y-53199250D01*
X104664554Y-53232239D01*
X104627679Y-53258029D01*
X104584605Y-53276994D01*
X104534173Y-53288954D01*
X104474927Y-53293186D01*
G37*
G36*
X105493345Y-52460414D02*
G01*
X105566947Y-52471952D01*
X105628073Y-52489729D01*
X105678594Y-52512934D01*
X105720088Y-52541129D01*
X105753783Y-52574281D01*
X105789551Y-52623207D01*
X105817158Y-52675212D01*
X105836985Y-52730770D01*
X105849095Y-52790495D01*
X105853239Y-52855112D01*
X105848362Y-52929802D01*
X105834059Y-52999371D01*
X105810545Y-53064623D01*
X105786064Y-53109901D01*
X105754776Y-53150888D01*
X105716188Y-53187974D01*
X105669519Y-53221330D01*
X105619800Y-53246556D01*
X105561310Y-53265539D01*
X105492562Y-53277679D01*
X105411843Y-53282000D01*
X105205458Y-53282000D01*
X105205458Y-53168085D01*
X105333930Y-53168085D01*
X105425276Y-53168085D01*
X105488019Y-53163973D01*
X105540103Y-53152506D01*
X105583310Y-53134625D01*
X105619097Y-53110749D01*
X105648514Y-53080743D01*
X105678273Y-53035506D01*
X105699911Y-52984485D01*
X105713373Y-52926653D01*
X105718075Y-52860729D01*
X105713301Y-52796545D01*
X105699700Y-52740977D01*
X105677913Y-52692597D01*
X105647977Y-52650290D01*
X105618674Y-52622593D01*
X105583006Y-52600389D01*
X105539892Y-52583671D01*
X105487892Y-52572915D01*
X105425276Y-52569055D01*
X105333930Y-52569055D01*
X105333930Y-53168085D01*
X105205458Y-53168085D01*
X105205458Y-52456263D01*
X105405151Y-52456263D01*
X105493345Y-52460414D01*
G37*
G36*
X106263648Y-52756442D02*
G01*
X106311677Y-52769568D01*
X106350400Y-52790039D01*
X106381487Y-52817694D01*
X106405777Y-52851985D01*
X106423866Y-52893290D01*
X106435428Y-52943007D01*
X106439568Y-53002879D01*
X106436051Y-53067115D01*
X106067147Y-53067115D01*
X106078645Y-53109451D01*
X106094767Y-53140562D01*
X106114969Y-53162858D01*
X106140559Y-53178756D01*
X106173330Y-53188977D01*
X106215255Y-53192704D01*
X106266389Y-53190236D01*
X106303281Y-53183814D01*
X106336912Y-53172959D01*
X106368249Y-53158461D01*
X106406400Y-53247464D01*
X106374202Y-53264117D01*
X106328731Y-53279704D01*
X106277733Y-53289534D01*
X106211934Y-53293186D01*
X106151361Y-53288747D01*
X106100536Y-53276276D01*
X106057768Y-53256598D01*
X106019677Y-53229077D01*
X105989522Y-53196571D01*
X105966519Y-53158608D01*
X105950392Y-53116807D01*
X105940598Y-53072171D01*
X105937258Y-53024128D01*
X105940556Y-52980018D01*
X106067098Y-52980018D01*
X106318961Y-52980018D01*
X106315507Y-52936311D01*
X106305118Y-52905756D01*
X106289163Y-52884812D01*
X106266982Y-52869825D01*
X106238152Y-52860198D01*
X106200747Y-52856675D01*
X106157087Y-52861906D01*
X106123676Y-52876365D01*
X106098018Y-52899619D01*
X106078997Y-52933137D01*
X106067098Y-52980018D01*
X105940556Y-52980018D01*
X105941282Y-52970306D01*
X105952860Y-52922641D01*
X105971599Y-52880122D01*
X105997650Y-52841758D01*
X106029209Y-52810230D01*
X106066756Y-52784916D01*
X106108426Y-52766670D01*
X106153932Y-52755528D01*
X106204069Y-52751699D01*
X106263648Y-52756442D01*
G37*
G36*
X106741452Y-53293186D02*
G01*
X106687220Y-53289755D01*
X106629638Y-53279117D01*
X106576470Y-53262216D01*
X106545911Y-53245119D01*
X106587433Y-53147080D01*
X106634869Y-53173654D01*
X106685843Y-53189549D01*
X106741452Y-53194951D01*
X106783846Y-53190743D01*
X106808529Y-53180466D01*
X106821636Y-53165913D01*
X106826058Y-53146152D01*
X106821666Y-53126915D01*
X106808570Y-53112544D01*
X106787235Y-53100836D01*
X106745360Y-53083821D01*
X106702862Y-53068140D01*
X106659010Y-53047896D01*
X106623745Y-53026235D01*
X106595835Y-53003318D01*
X106574166Y-52975895D01*
X106560961Y-52943076D01*
X106556316Y-52903277D01*
X106559964Y-52868884D01*
X106570433Y-52839495D01*
X106587623Y-52814033D01*
X106612248Y-52791853D01*
X106651513Y-52770423D01*
X106700485Y-52756676D01*
X106761578Y-52751699D01*
X106807330Y-52754247D01*
X106852094Y-52761860D01*
X106893568Y-52774338D01*
X106921362Y-52788531D01*
X106876225Y-52888036D01*
X106857638Y-52874191D01*
X106828745Y-52861658D01*
X106796000Y-52853847D01*
X106758256Y-52851106D01*
X106719437Y-52855066D01*
X106696687Y-52864781D01*
X106684490Y-52878657D01*
X106680343Y-52897659D01*
X106685606Y-52920735D01*
X106701152Y-52937422D01*
X106725691Y-52950480D01*
X106769882Y-52967757D01*
X106804662Y-52980115D01*
X106851575Y-53001361D01*
X106886484Y-53022860D01*
X106911641Y-53044449D01*
X106930901Y-53070405D01*
X106942616Y-53100878D01*
X106946714Y-53137163D01*
X106942832Y-53174417D01*
X106931816Y-53205459D01*
X106913933Y-53231611D01*
X106888535Y-53253667D01*
X106847993Y-53274976D01*
X106799568Y-53288407D01*
X106741452Y-53293186D01*
G37*
G36*
X107383664Y-52998336D02*
G01*
X107232380Y-53282000D01*
X107209177Y-53282000D01*
X106991850Y-52765133D01*
X107125109Y-52765133D01*
X107235018Y-53061595D01*
X107380440Y-52765133D01*
X107386888Y-52765133D01*
X107533434Y-53059397D01*
X107643392Y-52765133D01*
X107774404Y-52765133D01*
X107558151Y-53282000D01*
X107534948Y-53282000D01*
X107383664Y-52998336D01*
G37*
G36*
X107862380Y-52765133D02*
G01*
X107990852Y-52765133D01*
X107990852Y-53282000D01*
X107862380Y-53282000D01*
X107862380Y-52765133D01*
G37*
G36*
X107925493Y-52672027D02*
G01*
X107902937Y-52669299D01*
X107883414Y-52661375D01*
X107866191Y-52648092D01*
X107852881Y-52630863D01*
X107844940Y-52611325D01*
X107842206Y-52588741D01*
X107844872Y-52568425D01*
X107852738Y-52550368D01*
X107866191Y-52533933D01*
X107883338Y-52521288D01*
X107902865Y-52513695D01*
X107925493Y-52511071D01*
X107957252Y-52516833D01*
X107983671Y-52533933D01*
X107997124Y-52550368D01*
X108004990Y-52568425D01*
X108007656Y-52588741D01*
X108004974Y-52611362D01*
X107997199Y-52630902D01*
X107984209Y-52648092D01*
X107967346Y-52661354D01*
X107948030Y-52669287D01*
X107925493Y-52672027D01*
G37*
G36*
X108332206Y-52902397D02*
G01*
X108358486Y-52864637D01*
X108237244Y-52867910D01*
X108147265Y-52867910D01*
X108147265Y-52765133D01*
X108551194Y-52765133D01*
X108318040Y-53145859D01*
X108291710Y-53185866D01*
X108409582Y-53181518D01*
X108541034Y-53179222D01*
X108541034Y-53282000D01*
X108096756Y-53282000D01*
X108332206Y-52902397D01*
G37*
G36*
X108837886Y-52902397D02*
G01*
X108864167Y-52864637D01*
X108742925Y-52867910D01*
X108652946Y-52867910D01*
X108652946Y-52765133D01*
X109056874Y-52765133D01*
X108823720Y-53145859D01*
X108797391Y-53185866D01*
X108915262Y-53181518D01*
X109046714Y-53179222D01*
X109046714Y-53282000D01*
X108602436Y-53282000D01*
X108837886Y-52902397D01*
G37*
G36*
X109176553Y-52456263D02*
G01*
X109299456Y-52456263D01*
X109299456Y-53282000D01*
X109176553Y-53282000D01*
X109176553Y-52456263D01*
G37*
G36*
X109762769Y-52756442D02*
G01*
X109810798Y-52769568D01*
X109849521Y-52790039D01*
X109880608Y-52817694D01*
X109904898Y-52851985D01*
X109922987Y-52893290D01*
X109934549Y-52943007D01*
X109938689Y-53002879D01*
X109935172Y-53067115D01*
X109566267Y-53067115D01*
X109577766Y-53109451D01*
X109593888Y-53140562D01*
X109614090Y-53162858D01*
X109639680Y-53178756D01*
X109672451Y-53188977D01*
X109714376Y-53192704D01*
X109765509Y-53190236D01*
X109802401Y-53183814D01*
X109836033Y-53172959D01*
X109867370Y-53158461D01*
X109905521Y-53247464D01*
X109873323Y-53264117D01*
X109827851Y-53279704D01*
X109776853Y-53289534D01*
X109711054Y-53293186D01*
X109650481Y-53288747D01*
X109599656Y-53276276D01*
X109556888Y-53256598D01*
X109518798Y-53229077D01*
X109488642Y-53196571D01*
X109465639Y-53158608D01*
X109449513Y-53116807D01*
X109439718Y-53072171D01*
X109436379Y-53024128D01*
X109439676Y-52980018D01*
X109566218Y-52980018D01*
X109818082Y-52980018D01*
X109814628Y-52936311D01*
X109804239Y-52905756D01*
X109788284Y-52884812D01*
X109766102Y-52869825D01*
X109737273Y-52860198D01*
X109699868Y-52856675D01*
X109656208Y-52861906D01*
X109622797Y-52876365D01*
X109597139Y-52899619D01*
X109578118Y-52933137D01*
X109566218Y-52980018D01*
X109439676Y-52980018D01*
X109440402Y-52970306D01*
X109451981Y-52922641D01*
X109470720Y-52880122D01*
X109496771Y-52841758D01*
X109528329Y-52810230D01*
X109565877Y-52784916D01*
X109607547Y-52766670D01*
X109653053Y-52755528D01*
X109703190Y-52751699D01*
X109762769Y-52756442D01*
G37*
G36*
X110058807Y-52765133D02*
G01*
X110182834Y-52765133D01*
X110181271Y-52867422D01*
X110195219Y-52834393D01*
X110214232Y-52806621D01*
X110238521Y-52783402D01*
X110266984Y-52765753D01*
X110297638Y-52755260D01*
X110331236Y-52751699D01*
X110364650Y-52753960D01*
X110382185Y-52759124D01*
X110364893Y-52884665D01*
X110350265Y-52879271D01*
X110320050Y-52876849D01*
X110286457Y-52880525D01*
X110255141Y-52891463D01*
X110225381Y-52910066D01*
X110202628Y-52935190D01*
X110188168Y-52969564D01*
X110182834Y-53016312D01*
X110182834Y-53282000D01*
X110058807Y-53282000D01*
X110058807Y-52765133D01*
G37*
D11*
X85550047Y-60057419D02*
X85502428Y-60033609D01*
X85502428Y-60033609D02*
X85430999Y-60033609D01*
X85430999Y-60033609D02*
X85359571Y-60057419D01*
X85359571Y-60057419D02*
X85311952Y-60105038D01*
X85311952Y-60105038D02*
X85288142Y-60152657D01*
X85288142Y-60152657D02*
X85264333Y-60247895D01*
X85264333Y-60247895D02*
X85264333Y-60319323D01*
X85264333Y-60319323D02*
X85288142Y-60414561D01*
X85288142Y-60414561D02*
X85311952Y-60462180D01*
X85311952Y-60462180D02*
X85359571Y-60509800D01*
X85359571Y-60509800D02*
X85430999Y-60533609D01*
X85430999Y-60533609D02*
X85478618Y-60533609D01*
X85478618Y-60533609D02*
X85550047Y-60509800D01*
X85550047Y-60509800D02*
X85573856Y-60485990D01*
X85573856Y-60485990D02*
X85573856Y-60319323D01*
X85573856Y-60319323D02*
X85478618Y-60319323D01*
X85788142Y-60533609D02*
X85788142Y-60033609D01*
X85788142Y-60033609D02*
X86073856Y-60533609D01*
X86073856Y-60533609D02*
X86073856Y-60033609D01*
X86311952Y-60533609D02*
X86311952Y-60033609D01*
X86311952Y-60033609D02*
X86431000Y-60033609D01*
X86431000Y-60033609D02*
X86502428Y-60057419D01*
X86502428Y-60057419D02*
X86550047Y-60105038D01*
X86550047Y-60105038D02*
X86573857Y-60152657D01*
X86573857Y-60152657D02*
X86597666Y-60247895D01*
X86597666Y-60247895D02*
X86597666Y-60319323D01*
X86597666Y-60319323D02*
X86573857Y-60414561D01*
X86573857Y-60414561D02*
X86550047Y-60462180D01*
X86550047Y-60462180D02*
X86502428Y-60509800D01*
X86502428Y-60509800D02*
X86431000Y-60533609D01*
X86431000Y-60533609D02*
X86311952Y-60533609D01*
D12*
%TO.C,G\u002A\u002A\u002A*%
G36*
X85977429Y-57750856D02*
G01*
X85998605Y-57751256D01*
X86018261Y-57751884D01*
X86035720Y-57752740D01*
X86050304Y-57753826D01*
X86056451Y-57754472D01*
X86120669Y-57763992D01*
X86183073Y-57776968D01*
X86243690Y-57793410D01*
X86302549Y-57813330D01*
X86359676Y-57836739D01*
X86415101Y-57863647D01*
X86468849Y-57894065D01*
X86520950Y-57928004D01*
X86547692Y-57947265D01*
X86566961Y-57961904D01*
X86584612Y-57975986D01*
X86601447Y-57990211D01*
X86618271Y-58005280D01*
X86635886Y-58021895D01*
X86655095Y-58040757D01*
X86657170Y-58042828D01*
X86689122Y-58075936D01*
X86718072Y-58108472D01*
X86744669Y-58141257D01*
X86769560Y-58175115D01*
X86793391Y-58210869D01*
X86808098Y-58234647D01*
X86835991Y-58284399D01*
X86861286Y-58336527D01*
X86883760Y-58390429D01*
X86903190Y-58445507D01*
X86919353Y-58501158D01*
X86932027Y-58556783D01*
X86936268Y-58580067D01*
X86939380Y-58598927D01*
X86941948Y-58615529D01*
X86944023Y-58630553D01*
X86945656Y-58644681D01*
X86946897Y-58658595D01*
X86947799Y-58672975D01*
X86948412Y-58688503D01*
X86948788Y-58705859D01*
X86948978Y-58725725D01*
X86949032Y-58748783D01*
X86949033Y-58749999D01*
X86948983Y-58773229D01*
X86948801Y-58793236D01*
X86948436Y-58810698D01*
X86947835Y-58826299D01*
X86946949Y-58840719D01*
X86945725Y-58854640D01*
X86944112Y-58868742D01*
X86942060Y-58883707D01*
X86939517Y-58900216D01*
X86936433Y-58918951D01*
X86936268Y-58919931D01*
X86925131Y-58975366D01*
X86910411Y-59031079D01*
X86892330Y-59086471D01*
X86871112Y-59140942D01*
X86846978Y-59193891D01*
X86820153Y-59244717D01*
X86808098Y-59265351D01*
X86784600Y-59302715D01*
X86760451Y-59337667D01*
X86735000Y-59371030D01*
X86707603Y-59403626D01*
X86677610Y-59436278D01*
X86657170Y-59457170D01*
X86624062Y-59489122D01*
X86591527Y-59518072D01*
X86558741Y-59544669D01*
X86524883Y-59569560D01*
X86489129Y-59593391D01*
X86465351Y-59608098D01*
X86415646Y-59635966D01*
X86363566Y-59661243D01*
X86309715Y-59683703D01*
X86254693Y-59703126D01*
X86199101Y-59719286D01*
X86143541Y-59731961D01*
X86119931Y-59736264D01*
X86100940Y-59739386D01*
X86084190Y-59741943D01*
X86068944Y-59743996D01*
X86054463Y-59745604D01*
X86040011Y-59746824D01*
X86024848Y-59747717D01*
X86008238Y-59748342D01*
X85989442Y-59748757D01*
X85967722Y-59749021D01*
X85959765Y-59749086D01*
X85943108Y-59749187D01*
X85927401Y-59749240D01*
X85913141Y-59749247D01*
X85900827Y-59749209D01*
X85890957Y-59749127D01*
X85884030Y-59749004D01*
X85880659Y-59748852D01*
X85842672Y-59744818D01*
X85807873Y-59740367D01*
X85775554Y-59735357D01*
X85745008Y-59729645D01*
X85715525Y-59723091D01*
X85686397Y-59715552D01*
X85656917Y-59706887D01*
X85633573Y-59699372D01*
X85575627Y-59678127D01*
X85519570Y-59653579D01*
X85465245Y-59625639D01*
X85412497Y-59594221D01*
X85361166Y-59559237D01*
X85311096Y-59520597D01*
X85305428Y-59515929D01*
X85295154Y-59507044D01*
X85282861Y-59495815D01*
X85269127Y-59482821D01*
X85254527Y-59468637D01*
X85239640Y-59453841D01*
X85225040Y-59439008D01*
X85211306Y-59424717D01*
X85199015Y-59411542D01*
X85188741Y-59400063D01*
X85184069Y-59394570D01*
X85151490Y-59353474D01*
X85122048Y-59312441D01*
X85095108Y-59270515D01*
X85070035Y-59226742D01*
X85060493Y-59208707D01*
X85034190Y-59153760D01*
X85011352Y-59097215D01*
X84991950Y-59038983D01*
X84975958Y-58978973D01*
X84963349Y-58917097D01*
X84954472Y-58856451D01*
X84953269Y-58843605D01*
X84952295Y-58827536D01*
X84951549Y-58808923D01*
X84951033Y-58788442D01*
X84950745Y-58766771D01*
X84950724Y-58758897D01*
X85051935Y-58758897D01*
X85053526Y-58801449D01*
X85057358Y-58845023D01*
X85063430Y-58890463D01*
X85067973Y-58917978D01*
X85074644Y-58950474D01*
X85083508Y-58985031D01*
X85094247Y-59020722D01*
X85106543Y-59056615D01*
X85120076Y-59091782D01*
X85134528Y-59125292D01*
X85149581Y-59156216D01*
X85149611Y-59156274D01*
X85171813Y-59197082D01*
X85194405Y-59234689D01*
X85217904Y-59269800D01*
X85242829Y-59303119D01*
X85269698Y-59335351D01*
X85299029Y-59367199D01*
X85321349Y-59389687D01*
X85341658Y-59409270D01*
X85360242Y-59426448D01*
X85377852Y-59441838D01*
X85395239Y-59456058D01*
X85413154Y-59469723D01*
X85432347Y-59483450D01*
X85450750Y-59495977D01*
X85495162Y-59523945D01*
X85539936Y-59548644D01*
X85585913Y-59570482D01*
X85633936Y-59589869D01*
X85670139Y-59602502D01*
X85692182Y-59609595D01*
X85711494Y-59615472D01*
X85728969Y-59620364D01*
X85745503Y-59624504D01*
X85761993Y-59628124D01*
X85779334Y-59631458D01*
X85786903Y-59632796D01*
X85826645Y-59639095D01*
X85863737Y-59643712D01*
X85899031Y-59646702D01*
X85933376Y-59648120D01*
X85967623Y-59648019D01*
X86001760Y-59646508D01*
X86027162Y-59644486D01*
X86053994Y-59641589D01*
X86081302Y-59637962D01*
X86108134Y-59633749D01*
X86133535Y-59629096D01*
X86156553Y-59624148D01*
X86168762Y-59621114D01*
X86227540Y-59603659D01*
X86284248Y-59582904D01*
X86338872Y-59558853D01*
X86391396Y-59531515D01*
X86441805Y-59500897D01*
X86449248Y-59495977D01*
X86470173Y-59481690D01*
X86489164Y-59468005D01*
X86506970Y-59454304D01*
X86524344Y-59439971D01*
X86542035Y-59424389D01*
X86560796Y-59406940D01*
X86578649Y-59389687D01*
X86604128Y-59363981D01*
X86626950Y-59339296D01*
X86647864Y-59314737D01*
X86667618Y-59289411D01*
X86686961Y-59262426D01*
X86693979Y-59252118D01*
X86721458Y-59208933D01*
X86745671Y-59165815D01*
X86767072Y-59121831D01*
X86786117Y-59076048D01*
X86802502Y-59029859D01*
X86809841Y-59007018D01*
X86815921Y-58986958D01*
X86820962Y-58968845D01*
X86825183Y-58951846D01*
X86828805Y-58935125D01*
X86832025Y-58917978D01*
X86839395Y-58871070D01*
X86844525Y-58826517D01*
X86847414Y-58783476D01*
X86848063Y-58741101D01*
X86846472Y-58698549D01*
X86842640Y-58654975D01*
X86836568Y-58609535D01*
X86832025Y-58582020D01*
X86825354Y-58549524D01*
X86816490Y-58514967D01*
X86805751Y-58479276D01*
X86793455Y-58443383D01*
X86779922Y-58408216D01*
X86765470Y-58374706D01*
X86750417Y-58343782D01*
X86750387Y-58343724D01*
X86728185Y-58302917D01*
X86705593Y-58265309D01*
X86682094Y-58230198D01*
X86657169Y-58196879D01*
X86630300Y-58164647D01*
X86600969Y-58132799D01*
X86578649Y-58110311D01*
X86549432Y-58082565D01*
X86521086Y-58057567D01*
X86492855Y-58034772D01*
X86463987Y-58013635D01*
X86433726Y-57993611D01*
X86401320Y-57974155D01*
X86366013Y-57954722D01*
X86356274Y-57949611D01*
X86328270Y-57935947D01*
X86297294Y-57922453D01*
X86264275Y-57909480D01*
X86230144Y-57897378D01*
X86195832Y-57886499D01*
X86168762Y-57878882D01*
X86134428Y-57870870D01*
X86097345Y-57864152D01*
X86058480Y-57858823D01*
X86018804Y-57854979D01*
X85979284Y-57852715D01*
X85940890Y-57852127D01*
X85907516Y-57853141D01*
X85875913Y-57855418D01*
X85843791Y-57858731D01*
X85812055Y-57862947D01*
X85781610Y-57867934D01*
X85753359Y-57873561D01*
X85731236Y-57878882D01*
X85672418Y-57896353D01*
X85615690Y-57917119D01*
X85561059Y-57941176D01*
X85508532Y-57968521D01*
X85458118Y-57999150D01*
X85450750Y-58004021D01*
X85429825Y-58018308D01*
X85410834Y-58031993D01*
X85393028Y-58045694D01*
X85375654Y-58060027D01*
X85357963Y-58075609D01*
X85339202Y-58093058D01*
X85321349Y-58110311D01*
X85295870Y-58136017D01*
X85273048Y-58160702D01*
X85252134Y-58185261D01*
X85232380Y-58210587D01*
X85213037Y-58237572D01*
X85206019Y-58247880D01*
X85178540Y-58291065D01*
X85154327Y-58334183D01*
X85132926Y-58378167D01*
X85113881Y-58423950D01*
X85097496Y-58470139D01*
X85090157Y-58492980D01*
X85084077Y-58513040D01*
X85079037Y-58531153D01*
X85074815Y-58548152D01*
X85071193Y-58564873D01*
X85067973Y-58582020D01*
X85060603Y-58628928D01*
X85055473Y-58673481D01*
X85052584Y-58716522D01*
X85051935Y-58758897D01*
X84950724Y-58758897D01*
X84950686Y-58744588D01*
X84950856Y-58722569D01*
X84951256Y-58701393D01*
X84951884Y-58681737D01*
X84952740Y-58664278D01*
X84953826Y-58649694D01*
X84954472Y-58643547D01*
X84963992Y-58579329D01*
X84976968Y-58516925D01*
X84993410Y-58456308D01*
X85013330Y-58397449D01*
X85036739Y-58340322D01*
X85063647Y-58284897D01*
X85094065Y-58231149D01*
X85128004Y-58179048D01*
X85147265Y-58152306D01*
X85161904Y-58133037D01*
X85175986Y-58115386D01*
X85190211Y-58098551D01*
X85205280Y-58081727D01*
X85221895Y-58064112D01*
X85240757Y-58044903D01*
X85242828Y-58042828D01*
X85281218Y-58006076D01*
X85319660Y-57972668D01*
X85358850Y-57942094D01*
X85399480Y-57913845D01*
X85442247Y-57887412D01*
X85487844Y-57862284D01*
X85491291Y-57860493D01*
X85546238Y-57834190D01*
X85602783Y-57811352D01*
X85661015Y-57791950D01*
X85721025Y-57775958D01*
X85782901Y-57763349D01*
X85843547Y-57754472D01*
X85856393Y-57753269D01*
X85872462Y-57752295D01*
X85891075Y-57751549D01*
X85911556Y-57751033D01*
X85933227Y-57750745D01*
X85955410Y-57750686D01*
X85977429Y-57750856D01*
G37*
G36*
X86495530Y-58203510D02*
G01*
X86494941Y-58206434D01*
X86493649Y-58212874D01*
X86491716Y-58222513D01*
X86489206Y-58235037D01*
X86486183Y-58250131D01*
X86482708Y-58267478D01*
X86478846Y-58286765D01*
X86474659Y-58307675D01*
X86470211Y-58329894D01*
X86465683Y-58352514D01*
X86437143Y-58495101D01*
X86161831Y-58496077D01*
X85886519Y-58497054D01*
X85875939Y-58502623D01*
X85866600Y-58508661D01*
X85857101Y-58516694D01*
X85848569Y-58525627D01*
X85842130Y-58534367D01*
X85840774Y-58536788D01*
X85835677Y-58549861D01*
X85833682Y-58562553D01*
X85834701Y-58574329D01*
X85838650Y-58584655D01*
X85845442Y-58592997D01*
X85850390Y-58596564D01*
X85851796Y-58597335D01*
X85853389Y-58598003D01*
X85855451Y-58598579D01*
X85858263Y-58599073D01*
X85862107Y-58599494D01*
X85867263Y-58599852D01*
X85874012Y-58600157D01*
X85882635Y-58600419D01*
X85893414Y-58600649D01*
X85906630Y-58600856D01*
X85922564Y-58601049D01*
X85941496Y-58601239D01*
X85963709Y-58601437D01*
X85989482Y-58601650D01*
X85995900Y-58601703D01*
X86022611Y-58601924D01*
X86045721Y-58602128D01*
X86065537Y-58602327D01*
X86082365Y-58602530D01*
X86096511Y-58602748D01*
X86108281Y-58602992D01*
X86117981Y-58603272D01*
X86125917Y-58603598D01*
X86132395Y-58603981D01*
X86137722Y-58604432D01*
X86142203Y-58604961D01*
X86146144Y-58605577D01*
X86149852Y-58606293D01*
X86153525Y-58607094D01*
X86184733Y-58615788D01*
X86213649Y-58627264D01*
X86240041Y-58641406D01*
X86263675Y-58658100D01*
X86273245Y-58666319D01*
X86297241Y-58690462D01*
X86317567Y-58715799D01*
X86334323Y-58742503D01*
X86347610Y-58770746D01*
X86357530Y-58800701D01*
X86361594Y-58818007D01*
X86363249Y-58829241D01*
X86364373Y-58843340D01*
X86364966Y-58859298D01*
X86365032Y-58876110D01*
X86364571Y-58892772D01*
X86363586Y-58908277D01*
X86362079Y-58921621D01*
X86361392Y-58925791D01*
X86352178Y-58966966D01*
X86340028Y-59005667D01*
X86324820Y-59042129D01*
X86306432Y-59076587D01*
X86284742Y-59109277D01*
X86259627Y-59140434D01*
X86238213Y-59163193D01*
X86205431Y-59193520D01*
X86171548Y-59220130D01*
X86136587Y-59243011D01*
X86100566Y-59262152D01*
X86063507Y-59277539D01*
X86027152Y-59288723D01*
X86020518Y-59290443D01*
X86014508Y-59292003D01*
X86008909Y-59293409D01*
X86003511Y-59294672D01*
X85998102Y-59295799D01*
X85992469Y-59296798D01*
X85986402Y-59297677D01*
X85979688Y-59298446D01*
X85972117Y-59299112D01*
X85963476Y-59299684D01*
X85953554Y-59300170D01*
X85942139Y-59300579D01*
X85929019Y-59300918D01*
X85913984Y-59301196D01*
X85896820Y-59301421D01*
X85877317Y-59301603D01*
X85855263Y-59301748D01*
X85830447Y-59301865D01*
X85802656Y-59301963D01*
X85771679Y-59302050D01*
X85737305Y-59302134D01*
X85699321Y-59302224D01*
X85682893Y-59302264D01*
X85650165Y-59302334D01*
X85618523Y-59302380D01*
X85588187Y-59302405D01*
X85559374Y-59302407D01*
X85532303Y-59302388D01*
X85507192Y-59302348D01*
X85484261Y-59302289D01*
X85463727Y-59302211D01*
X85445809Y-59302114D01*
X85430726Y-59302000D01*
X85418696Y-59301868D01*
X85409937Y-59301720D01*
X85404668Y-59301556D01*
X85403090Y-59301395D01*
X85403464Y-59299277D01*
X85404547Y-59293625D01*
X85406281Y-59284734D01*
X85408608Y-59272900D01*
X85411468Y-59258420D01*
X85414803Y-59241588D01*
X85418554Y-59222700D01*
X85422664Y-59202053D01*
X85427073Y-59179943D01*
X85431722Y-59156664D01*
X85432679Y-59151879D01*
X85462269Y-59003921D01*
X85728186Y-59003921D01*
X85766735Y-59003923D01*
X85801577Y-59003924D01*
X85832911Y-59003917D01*
X85860938Y-59003892D01*
X85885857Y-59003842D01*
X85907867Y-59003760D01*
X85927168Y-59003637D01*
X85943960Y-59003465D01*
X85958443Y-59003236D01*
X85970815Y-59002942D01*
X85981276Y-59002576D01*
X85990027Y-59002129D01*
X85997266Y-59001593D01*
X86003193Y-59000960D01*
X86008008Y-59000223D01*
X86011911Y-58999373D01*
X86015100Y-58998402D01*
X86017777Y-58997303D01*
X86020139Y-58996067D01*
X86022387Y-58994687D01*
X86024720Y-58993154D01*
X86026495Y-58991996D01*
X86038052Y-58982926D01*
X86048215Y-58971806D01*
X86055833Y-58959924D01*
X86056572Y-58958400D01*
X86059690Y-58949056D01*
X86061232Y-58938629D01*
X86061135Y-58928503D01*
X86059332Y-58920062D01*
X86058474Y-58918114D01*
X86052888Y-58910615D01*
X86045286Y-58904739D01*
X86037055Y-58901533D01*
X86036373Y-58901417D01*
X86031362Y-58900359D01*
X86023857Y-58898412D01*
X86015075Y-58895902D01*
X86009946Y-58894338D01*
X85999255Y-58891249D01*
X85991869Y-58889746D01*
X85987526Y-58889817D01*
X85985966Y-58891451D01*
X85986308Y-58893312D01*
X85986239Y-58898276D01*
X85983085Y-58904280D01*
X85977344Y-58910807D01*
X85969517Y-58917344D01*
X85960101Y-58923376D01*
X85954283Y-58926358D01*
X85939554Y-58931421D01*
X85923554Y-58933762D01*
X85907444Y-58933355D01*
X85892382Y-58930173D01*
X85886500Y-58927937D01*
X85877163Y-58922254D01*
X85867787Y-58913843D01*
X85859375Y-58903740D01*
X85853200Y-58893538D01*
X85848039Y-58878737D01*
X85846272Y-58862913D01*
X85847749Y-58846689D01*
X85852322Y-58830684D01*
X85859840Y-58815519D01*
X85870154Y-58801816D01*
X85876893Y-58795190D01*
X85891548Y-58784390D01*
X85907366Y-58776982D01*
X85924766Y-58772833D01*
X85944170Y-58771811D01*
X85950642Y-58772107D01*
X85968233Y-58774188D01*
X85982298Y-58777869D01*
X85992883Y-58783170D01*
X86000034Y-58790113D01*
X86002909Y-58795643D01*
X86005285Y-58802213D01*
X86028915Y-58802101D01*
X86045191Y-58802514D01*
X86058985Y-58804112D01*
X86071613Y-58807180D01*
X86084396Y-58811999D01*
X86092543Y-58815779D01*
X86107785Y-58825193D01*
X86122048Y-58837736D01*
X86134735Y-58852647D01*
X86145251Y-58869168D01*
X86153002Y-58886539D01*
X86155998Y-58896715D01*
X86158931Y-58917057D01*
X86158648Y-58938649D01*
X86155302Y-58960758D01*
X86149041Y-58982651D01*
X86140017Y-59003594D01*
X86130857Y-59019250D01*
X86118189Y-59035694D01*
X86102890Y-59051333D01*
X86085809Y-59065485D01*
X86067800Y-59077469D01*
X86049713Y-59086605D01*
X86043737Y-59088927D01*
X86039797Y-59090359D01*
X86036290Y-59091643D01*
X86032992Y-59092786D01*
X86029681Y-59093799D01*
X86026132Y-59094691D01*
X86022122Y-59095469D01*
X86017427Y-59096144D01*
X86011825Y-59096724D01*
X86005091Y-59097218D01*
X85997002Y-59097634D01*
X85987334Y-59097983D01*
X85975864Y-59098273D01*
X85962369Y-59098513D01*
X85946625Y-59098712D01*
X85928408Y-59098878D01*
X85907495Y-59099021D01*
X85883662Y-59099150D01*
X85856686Y-59099273D01*
X85826343Y-59099401D01*
X85792410Y-59099540D01*
X85777228Y-59099604D01*
X85540977Y-59100607D01*
X85530725Y-59151391D01*
X85527989Y-59164983D01*
X85525521Y-59177317D01*
X85523424Y-59187875D01*
X85521799Y-59196139D01*
X85520750Y-59201592D01*
X85520379Y-59203702D01*
X85522280Y-59203895D01*
X85527843Y-59204071D01*
X85536828Y-59204227D01*
X85548990Y-59204364D01*
X85564087Y-59204480D01*
X85581876Y-59204575D01*
X85602113Y-59204647D01*
X85624557Y-59204695D01*
X85648964Y-59204719D01*
X85675091Y-59204718D01*
X85702695Y-59204690D01*
X85731533Y-59204635D01*
X85746373Y-59204596D01*
X85780863Y-59204499D01*
X85811673Y-59204407D01*
X85839031Y-59204318D01*
X85863165Y-59204224D01*
X85884301Y-59204124D01*
X85902667Y-59204010D01*
X85918490Y-59203880D01*
X85931997Y-59203729D01*
X85943415Y-59203551D01*
X85952973Y-59203342D01*
X85960896Y-59203099D01*
X85967412Y-59202815D01*
X85972749Y-59202487D01*
X85977134Y-59202110D01*
X85980793Y-59201679D01*
X85983955Y-59201190D01*
X85986846Y-59200638D01*
X85989694Y-59200019D01*
X85991327Y-59199647D01*
X86026362Y-59189725D01*
X86059857Y-59176317D01*
X86091923Y-59159360D01*
X86122667Y-59138793D01*
X86152200Y-59114555D01*
X86166553Y-59101033D01*
X86191038Y-59074922D01*
X86211853Y-59048264D01*
X86229231Y-59020650D01*
X86243407Y-58991670D01*
X86254614Y-58960916D01*
X86261640Y-58934581D01*
X86265160Y-58915572D01*
X86267391Y-58895684D01*
X86268288Y-58876005D01*
X86267808Y-58857621D01*
X86265904Y-58841621D01*
X86265533Y-58839688D01*
X86258563Y-58814567D01*
X86248305Y-58791150D01*
X86235010Y-58769726D01*
X86218926Y-58750588D01*
X86200304Y-58734026D01*
X86179392Y-58720331D01*
X86156441Y-58709795D01*
X86153145Y-58708612D01*
X86147819Y-58706770D01*
X86142970Y-58705170D01*
X86138291Y-58703792D01*
X86133474Y-58702617D01*
X86128212Y-58701625D01*
X86122196Y-58700796D01*
X86115118Y-58700112D01*
X86106670Y-58699554D01*
X86096546Y-58699100D01*
X86084436Y-58698733D01*
X86070033Y-58698432D01*
X86053029Y-58698178D01*
X86033117Y-58697952D01*
X86009988Y-58697734D01*
X85983335Y-58697505D01*
X85976368Y-58697447D01*
X85835734Y-58696258D01*
X85820323Y-58690822D01*
X85806471Y-58685363D01*
X85795042Y-58679369D01*
X85784568Y-58671961D01*
X85775058Y-58663648D01*
X85760093Y-58647025D01*
X85747914Y-58627907D01*
X85741613Y-58614248D01*
X85739494Y-58608682D01*
X85738014Y-58603836D01*
X85737061Y-58598823D01*
X85736524Y-58592751D01*
X85736292Y-58584732D01*
X85736254Y-58573875D01*
X85736260Y-58571277D01*
X85736354Y-58559492D01*
X85736637Y-58550628D01*
X85737230Y-58543700D01*
X85738251Y-58537723D01*
X85739821Y-58531712D01*
X85741830Y-58525376D01*
X85745004Y-58516380D01*
X85748488Y-58507454D01*
X85751631Y-58500245D01*
X85752235Y-58499007D01*
X85765411Y-58477104D01*
X85781750Y-58457128D01*
X85800848Y-58439417D01*
X85822302Y-58424308D01*
X85845706Y-58412137D01*
X85865129Y-58404878D01*
X85882612Y-58399412D01*
X86119841Y-58398425D01*
X86357070Y-58397438D01*
X86366074Y-58352514D01*
X86368705Y-58339388D01*
X86371149Y-58327208D01*
X86373276Y-58316612D01*
X86374960Y-58308233D01*
X86376073Y-58302708D01*
X86376390Y-58301141D01*
X86377702Y-58294693D01*
X86156526Y-58295392D01*
X86122391Y-58295502D01*
X86091923Y-58295605D01*
X86064884Y-58295707D01*
X86041036Y-58295812D01*
X86020138Y-58295926D01*
X86001952Y-58296053D01*
X85986240Y-58296199D01*
X85972762Y-58296367D01*
X85961279Y-58296563D01*
X85951554Y-58296791D01*
X85943346Y-58297057D01*
X85936417Y-58297366D01*
X85930528Y-58297721D01*
X85925441Y-58298128D01*
X85920915Y-58298592D01*
X85916714Y-58299118D01*
X85912597Y-58299710D01*
X85908326Y-58300374D01*
X85908004Y-58300425D01*
X85880094Y-58305660D01*
X85853559Y-58312237D01*
X85828996Y-58319964D01*
X85806996Y-58328651D01*
X85788154Y-58338106D01*
X85784856Y-58340049D01*
X85764300Y-58354126D01*
X85743487Y-58371444D01*
X85722988Y-58391429D01*
X85703375Y-58413505D01*
X85685220Y-58437098D01*
X85678218Y-58447246D01*
X85673659Y-58454562D01*
X85668074Y-58464252D01*
X85662108Y-58475158D01*
X85656406Y-58486124D01*
X85655311Y-58488310D01*
X85642030Y-58517734D01*
X85632228Y-58545775D01*
X85625874Y-58572761D01*
X85622934Y-58599016D01*
X85623375Y-58624866D01*
X85627164Y-58650638D01*
X85634268Y-58676657D01*
X85635780Y-58681065D01*
X85638593Y-58689672D01*
X85640963Y-58698077D01*
X85642462Y-58704735D01*
X85642638Y-58705850D01*
X85643472Y-58711152D01*
X85644489Y-58713264D01*
X85646391Y-58712870D01*
X85648501Y-58711549D01*
X85653704Y-58709789D01*
X85661525Y-58709075D01*
X85670837Y-58709338D01*
X85680513Y-58710508D01*
X85689426Y-58712517D01*
X85694614Y-58714387D01*
X85704591Y-58720331D01*
X85714590Y-58728848D01*
X85723447Y-58738790D01*
X85729993Y-58749009D01*
X85730184Y-58749394D01*
X85735217Y-58763898D01*
X85736793Y-58779121D01*
X85735176Y-58794592D01*
X85730631Y-58809844D01*
X85723422Y-58824406D01*
X85713814Y-58837808D01*
X85702071Y-58849582D01*
X85688458Y-58859257D01*
X85673238Y-58866365D01*
X85662602Y-58869387D01*
X85651170Y-58870746D01*
X85638601Y-58870476D01*
X85626453Y-58868719D01*
X85616285Y-58865612D01*
X85615315Y-58865175D01*
X85602155Y-58856953D01*
X85590645Y-58845791D01*
X85581412Y-58832521D01*
X85575079Y-58817971D01*
X85572917Y-58808878D01*
X85572068Y-58798288D01*
X85572803Y-58788278D01*
X85574947Y-58779828D01*
X85578323Y-58773915D01*
X85579404Y-58772894D01*
X85583766Y-58769420D01*
X85578982Y-58766058D01*
X85575272Y-58763059D01*
X85569898Y-58758249D01*
X85563939Y-58752599D01*
X85563149Y-58751825D01*
X85556784Y-58745024D01*
X85552126Y-58738435D01*
X85548174Y-58730492D01*
X85545863Y-58724783D01*
X85536706Y-58697267D01*
X85529968Y-58668836D01*
X85525743Y-58640268D01*
X85524126Y-58612344D01*
X85525212Y-58585843D01*
X85527184Y-58571045D01*
X85535048Y-58535522D01*
X85546223Y-58500200D01*
X85560454Y-58465426D01*
X85577486Y-58431550D01*
X85597062Y-58398921D01*
X85618930Y-58367887D01*
X85642832Y-58338799D01*
X85668516Y-58312005D01*
X85695724Y-58287854D01*
X85724202Y-58266695D01*
X85753696Y-58248877D01*
X85767772Y-58241786D01*
X85793727Y-58230732D01*
X85821674Y-58221177D01*
X85852096Y-58212987D01*
X85885473Y-58206027D01*
X85910934Y-58201802D01*
X85914313Y-58201332D01*
X85918040Y-58200906D01*
X85922315Y-58200520D01*
X85927341Y-58200173D01*
X85933320Y-58199861D01*
X85940453Y-58199582D01*
X85948943Y-58199333D01*
X85958989Y-58199111D01*
X85970796Y-58198915D01*
X85984563Y-58198740D01*
X86000494Y-58198585D01*
X86018789Y-58198447D01*
X86039650Y-58198323D01*
X86063280Y-58198210D01*
X86089879Y-58198106D01*
X86119650Y-58198007D01*
X86152794Y-58197912D01*
X86189513Y-58197818D01*
X86215117Y-58197757D01*
X86496837Y-58197093D01*
X86495530Y-58203510D01*
G37*
D13*
%TO.C,C3*%
X79884165Y-47846800D02*
X80115835Y-47846800D01*
X79884165Y-48566800D02*
X80115835Y-48566800D01*
%TO.C,C4*%
X79884165Y-48964400D02*
X80115835Y-48964400D01*
X79884165Y-49684400D02*
X80115835Y-49684400D01*
%TO.C,C1*%
X79884165Y-51021800D02*
X80115835Y-51021800D01*
X79884165Y-51741800D02*
X80115835Y-51741800D01*
%TO.C,C2*%
X79884165Y-52139400D02*
X80115835Y-52139400D01*
X79884165Y-52859400D02*
X80115835Y-52859400D01*
%TO.C,C5*%
X76884165Y-50540000D02*
X77115835Y-50540000D01*
X76884165Y-51260000D02*
X77115835Y-51260000D01*
%TO.C,C8*%
X76884165Y-46260000D02*
X77115835Y-46260000D01*
X76884165Y-46980000D02*
X77115835Y-46980000D01*
%TO.C,C6*%
X76884165Y-49440000D02*
X77115835Y-49440000D01*
X76884165Y-50160000D02*
X77115835Y-50160000D01*
%TO.C,C7*%
X76884165Y-47365000D02*
X77115835Y-47365000D01*
X76884165Y-48085000D02*
X77115835Y-48085000D01*
%TD*%
M02*
