%TF.GenerationSoftware,KiCad,Pcbnew,9.0.7*%
%TF.CreationDate,2026-02-14T16:58:03-06:00*%
%TF.ProjectId,Deswizzler-QSB,44657377-697a-47a6-9c65-722d5153422e,A1*%
%TF.SameCoordinates,Original*%
%TF.FileFunction,Profile,NP*%
%FSLAX46Y46*%
G04 Gerber Fmt 4.6, Leading zero omitted, Abs format (unit mm)*
G04 Created by KiCad (PCBNEW 9.0.7) date 2026-02-14 16:58:03*
%MOMM*%
%LPD*%
G01*
G04 APERTURE LIST*
%TA.AperFunction,Profile*%
%ADD10C,0.050000*%
%TD*%
G04 APERTURE END LIST*
D10*
X136400000Y-71000000D02*
X136400000Y-67900000D01*
X84153553Y-57446447D02*
G75*
G02*
X84299999Y-57800000I-353553J-353553D01*
G01*
X119453553Y-59146447D02*
X128353553Y-68046448D01*
X133641000Y-70000000D02*
X135741000Y-70000000D01*
X133641000Y-70000000D02*
X133641000Y-69085600D01*
X136400000Y-71000000D02*
G75*
G02*
X135900000Y-71500000I-500000J0D01*
G01*
X71000000Y-54000000D02*
G75*
G02*
X70500000Y-53500000I0J500000D01*
G01*
X133641000Y-69085600D02*
X135741000Y-69085600D01*
X83282842Y-45617157D02*
X89450000Y-51853506D01*
X83000000Y-45500000D02*
G75*
G02*
X83282843Y-45617157I0J-400000D01*
G01*
X119100000Y-59000000D02*
X87900000Y-59000000D01*
X71834000Y-47700000D02*
X72748400Y-47700000D01*
X71834000Y-50875000D02*
X72748400Y-50875000D01*
X129450000Y-70000000D02*
X131550000Y-70000000D01*
X89803553Y-52000000D02*
G75*
G02*
X89450023Y-51853530I47J500000D01*
G01*
X71000000Y-45500000D02*
X83000000Y-45500000D01*
X84300000Y-57800000D02*
X84300000Y-61168800D01*
X71834000Y-49850000D02*
X72748400Y-49850000D01*
X72748400Y-47700000D02*
X72748400Y-49850000D01*
X80500000Y-54000000D02*
G75*
G02*
X80853553Y-54146447I0J-500000D01*
G01*
X120500000Y-52000000D02*
X89803600Y-52000000D01*
X128353553Y-68046447D02*
G75*
G02*
X128499999Y-68400000I-353553J-353553D01*
G01*
X87400000Y-59500000D02*
X87400000Y-61168800D01*
X131550000Y-70000000D02*
X131550000Y-69085600D01*
X135741000Y-70000000D02*
X135741000Y-69085600D01*
X72748400Y-50875000D02*
X72748400Y-53025000D01*
X70500000Y-46000000D02*
X70500000Y-53500000D01*
X119100000Y-59000000D02*
G75*
G02*
X119453553Y-59146447I0J-500000D01*
G01*
X128500000Y-68400000D02*
X128500000Y-71000000D01*
X136253553Y-67546447D02*
G75*
G02*
X136399999Y-67900000I-353553J-353553D01*
G01*
X129450000Y-70000000D02*
X129450000Y-69085600D01*
X129450000Y-69085600D02*
X131550000Y-69085600D01*
X87400000Y-59500000D02*
G75*
G02*
X87900000Y-59000000I500000J0D01*
G01*
X129000000Y-71500000D02*
X135900000Y-71500000D01*
X71834000Y-50875000D02*
X71834000Y-53025000D01*
X84800000Y-61668800D02*
G75*
G02*
X84300000Y-61168800I0J500000D01*
G01*
X87400000Y-61168800D02*
G75*
G02*
X86900000Y-61668800I-500000J0D01*
G01*
X84800000Y-61668800D02*
X86900000Y-61668800D01*
X71834000Y-53025000D02*
X72748400Y-53025000D01*
X129000000Y-71500000D02*
G75*
G02*
X128500000Y-71000000I0J500000D01*
G01*
X80500000Y-54000000D02*
X71000000Y-54000000D01*
X71834000Y-47700000D02*
X71834000Y-49850000D01*
X120853553Y-52146447D02*
X136253553Y-67546448D01*
X80853553Y-54146447D02*
X84153553Y-57446447D01*
X120500000Y-52000000D02*
G75*
G02*
X120853553Y-52146447I0J-500000D01*
G01*
X70500000Y-46000000D02*
G75*
G02*
X71000000Y-45500000I500000J0D01*
G01*
M02*
