M48
; DRILL file {KiCad 9.0.7} date 2026-02-14T16:58:05-0600
; FORMAT={-:-/ absolute / metric / decimal}
; #@! TF.CreationDate,2026-02-14T16:58:05-06:00
; #@! TF.GenerationSoftware,Kicad,Pcbnew,9.0.7
; #@! TF.FileFunction,Plated,1,2,PTH
FMAT,2
METRIC
; #@! TA.AperFunction,Plated,PTH,ViaDrill
T1C0.200
; #@! TA.AperFunction,Plated,PTH,ComponentDrill
T2C0.500
; #@! TA.AperFunction,Plated,PTH,ComponentDrill
T3C1.000
%
G90
G05
T1
X71.025Y-50.55
X75.5Y-46.4
X75.5Y-47.95
X75.5Y-49.55
X75.5Y-51.15
X75.5Y-52.75
X78.5Y-46.4
X78.5Y-47.95
X78.5Y-49.55
X78.5Y-51.15
X78.5Y-52.75
X81.5Y-46.4
X81.5Y-47.95
X81.5Y-49.55
X81.5Y-51.15
X81.5Y-52.75
X88.25Y-58.625
X89.4Y-53.1
X89.4Y-54.6
X89.4Y-56.2
X89.4Y-57.7
X119.9Y-53.1
X119.9Y-54.6
X119.9Y-56.2
X119.9Y-57.7
X119.9Y-59.025
X128.175Y-67.3
X129.8Y-67.3
X131.425Y-67.3
X132.35Y-70.65
X133.6Y-67.3
X135.3Y-67.3
T2
X71.834Y-48.207
X71.834Y-49.324
X71.834Y-51.382
X71.834Y-52.499
X72.748Y-48.207
X72.748Y-49.324
X72.748Y-51.382
X72.748Y-52.499
X130.0Y-69.086
X130.0Y-70.0
X131.016Y-69.086
X131.016Y-70.0
X134.191Y-69.086
X134.191Y-70.0
X135.207Y-69.086
X135.207Y-70.0
T3
X85.931Y-61.669
M30
